<?xml version="1.0" encoding="UTF-8"?>
<svg version="1.1" viewBox="0 0 2000 2000" width="1280" height="1280" xmlns="http://www.w3.org/2000/svg">
<path transform="translate(0)" d="m0 0h2e3v2e3h-2e3z" fill="#FDC902"/>
<path transform="translate(1e3 303)" d="m0 0h14l36 2 31 4 26 5 22 6 24 8 29 12 27 14 21 13 16 11 28 22 16 15 10 10 9 11 10 13 12 19 8 16 6 14 5 15 4 17 3 23v14l-2 18-5 20-1 7 11 9 10 9 4 3v2h2l7 8 18 18 4 5v2h2l1-10 6-27 6-20 8-20 8-16 9-15 9-12 11-11 14-11 13-8 16-8 18-6 11-2h25l16 4 16 8 11 7 12 12 8 13 8 15 5 15 3 13 2 21v10l-2 18-5 17-9 21-10 21-8 14-8 12-9 12-12 14-5 6h-2v2l-8 7-7 7-22 18-17 12-19 11-2 1 1 5 10 26 8 25 7 25 7 33 3 18 4 36 2 29v284h23l11 2 11 7 8 10 4 11v191l-4 10-9 10-9 6-10 3-24 1-1 117-3 12-7 10-7 6-10 5-4 1-1e3 1-13-2-12-7-7-7-6-12-1-5-1-119-25-1-9-3-10-6-7-8-4-8-2-9-1-62v-118l3-13 6-9 9-8 7-4 11-2h23v-310l2-24 3-22 5-26 9-36 12-36 13-32 18-37 12-21 9-14 10-15 11-16 2-4-9-2-14-7-13-10-9-11-6-10-9-20-12-30-8-19-12-29-8-20-12-29-13-32-14-34-3-8v-6l6-6h8l8 13 11 23 12 25 4 9 11 24 8 16 15 31 9 20 8 16 17 36 8 17 4 4h9l5-5v-9l-16-33-11-23-13-28-8-16-17-36-11-23-16-34-13-28-1-3v-7l4-5 6-3h7l5 4 8 16 12 25 12 26 8 16 13 27 15 33 8 16 15 31 7 15 7 16 4 7 5 2 7-1 3-1 1-3v-10l-13-28-16-33-10-22-8-16-16-33-4-9-13-27-13-28-8-17-5-12 1-7 4-4 5-2h9l5 6 8 16 16 34 16 33 7 15 10 22 8 16 16 34 12 26 8 16 7 13 1 1h5l9-9v-6l-16-34-15-32-8-16-18-38-15-31-7-16-8-16-15-32-4-9 1-7 5-4 7-1 5 5 6 10 6 11 12 23 13 23 14 27 13 23 12 23 10 19 12 22 8 16 8 18 7-4 14-10 25-16 15-9 22-12 21-10 3-1-1-7-2-9v-32l6-25 9-22 11-21 14-21 9-11 12-13 10-10 14-11 18-12 18-10 20-9 19-6 19-4 17-2z" fill="#3D0B07"/>
<path transform="translate(490,1313)" d="m0 0 108 1 5 12 6 8 8 6 9 3 517 1 245-1 11-4 10-9 6-9 2-8 151 1 5 2 7 8 1 3 1 40v38l-1 9-4 1h-99l-5 1-1 2v8l1 5 6 1 77 1 25 1 1 2v55l-1 18-4 8-5 4-9 3h-1109l-9-2-8-6-3-5-1-5v-72l3-1 100-1 5-2 1-9v-5l-81-1-27-1-2-7 1-80 3-5 7-6 5-2z" fill="#B5361B"/>
<path transform="translate(491,1544)" d="m0 0h1033v116l-3 7-8 7-10 3h-995l-9-4v-2l-4-2-3-6-1-6z" fill="#EAA359"/>
<path transform="translate(863,649)" d="m0 0 5 1 7 8 8 8 2 4h-2v2l-14 2-10 5-5 2-1 2 16 1 18 5 16 7 11 7 11 8 4 1-1-8h-2l-8-16-8-7-2-1-1-4 4-1 7 4 13 5 2 1v2l8 1 23 7 10 2v2h8l1-5 6 1 26 7 13 2 2 1 12 1h16l16-1-2 5-5 5-3 1-2 4-3 5h-2v4l13-4 11-4h3v-2l8-2 36-3h23l-1-3-7-2v-2l-5-1v-2l-5-1-15-6-2-3 19-5 10-5 2-6 1-12 3 1 6 8 1 4h2v3h2l1 5h2l2 4v3h2l10 20 6 16v3h2l2 11h2l5 20v4h2l4 17v23l-6 26h-2l-3 12-3 11 3-2 3-5 2-5 2-1 3-5h2v-3l8-7 9-7 4-2h14l6 4 6 9 2 6v27l-5 15-7 10-10 9-8 4-4 1h-19v-2l-7-1-6-3-4 6-6 8-11 12-11 10-17 12-23 13-10 4-25 9-18 4-9 1-7 2-13 2h-50l-19-4v-2h-7l-20-6-12-5-4-1v-2l-10-3-16-9-11-6-7-5v-2l-4-1-4-3v-2l-4-2-8-7-5-4-2-5-3-1-2-4-4-4v-2h-2v-3h-2l-7-16-1-1-1-9-1-1v-18l2-18 1-3v-15l-1-8-1-39-2-17 3-24 7-26 6-15 8-18 8-14z" fill="#FCD39F"/>
<path transform="translate(1010,319)" d="m0 0h18l23 1 32 4 24 5 28 7 15 6 14 5 15 7 12 6 23 13 11 7 15 10 17 13 11 9 15 14 11 11 6 7v2h2l2 5h2l1 4h2l7 11 8 13 4 9 5 11 8 25 3 16 1 12v17l-3 20-4 12-5 10-8 10-8 8-4 3h-2v2l-9 6-11 8-4 3h-4l-6-18-8-16-11-18-9-11-9-10-15-15-11-9-12-10-3-1-5-5-22-14-20-11-24-11-21-8-22-7-25-5-29-3-15-1h-32l-23 3-26 6-21 7-20 9-16 9-16 12-4 4h-2l-2 4-9 10-12 18-4-1-9-12-8-16-5-16-1-5-1-17 3-19 5-19 5-12 8-16 8-13 10-14 11-13 2-3h2l2-4 11-10 14-11 6-5h2v-2l14-9 17-9 9-4 23-6 20-3z" fill="#FDFDFD"/>
<path transform="translate(1285,764)" d="m0 0 6 5 4 5 3 5 3 3v2h2l1 3 3 2 2 5 2 1v3h2l4 8 7 11 2 1 2 7 3 1v4l3 1 3 7 14 27v2h2l10 24 4 8 3 11 3 10 3 9 3 8 2 9 3 6 3 15v8l-4 5-9 15-10 12-8 7-10 7-14 9-4 4-2 4v8l3 7 8 6 16 10 15 14 11 15 8 13 3 3 9 2 1 1v140l-1 37-1 20-9 10-8 3h-218l-7-23-1-2v-8l5-8 5-12 2-4 1-7 15-14 12-8 13-7 12-9 8-7 12-12 9-13 5-8 6-15 3-15v-24l-4-17-5-9-8-12-8-11-7-7-6-4-4-4-6-5-4-4-7-4v-2l-4-1v-2h-3v-2l-5-2-2-1v-2h-3v-2h-3v-2l-4-1-11-7-24-14-12-6-12-5-12-4-18-2-6-4-1-4 65-1 28-3 28-6 13-5 8-5h4v-2l7-2 2-4 8-6 5-3 6-7 4-4 2-4 5-5 6-12 4-15 1-17-1-8-3-3h-7l-5 1v-7l1-2 1-12v-13l-1-11-3-10-1-7 5-8 4-10 6-12 4-10 3-10z" fill="#EAA358"/>
<path transform="translate(823 1e3)" d="m0 0 7 1 23 6 20 3h15l46-4 13-1 5 12 6 8 5 3v2l-21 1-8 3-4 8-2 11v12l3 7 9 6 5 2 13 1 15-4 17-6h12l12 5 23 11 12 3h9l5-4 3-8v-16l-4-13-6-8-7-3-1-2 10-5 9-7 9-9 1-2h2l2-4 1-1 7 1 2 1-1 8-3 8 3-3 4-8 5-4h13l12 5 26 14 11 7 9 5 7 5 5 3 10 7 9 7 14 12 8 7 8 8v2h2l4 5 3 6 3 4 5 15 2 13-1 13-3 13-8 16-8 11-8 10-6 5-4 4h-2v2l-11 7-8 5h-2l1-6v-17l-5-10-5-6-10-6-11-2-11 1-12 5-9 3-1-2 8-14 13-16 15-15 15-11 17-7 16-4 7-2-9-1-19 4-11 3h-2l1-5 7-11-1-1-7 7-7 12-9-1-42-12-12-5v-2l-6-2-4-4 2 6 4 5 9 3 5 3-1 10-5 15-6 26-2 22-3 8-11 7h-5l-1-1h-8l-7 4-6 8-1 6 1 9-5 2-16 3-17 3-21 2h-11l-8-7-5-4-12-4h-18l-12 5-11 6-11-1-26-10-11-5v-16l3-34 5-32 9-35 7-19 13-30 8-18-1 1-4 5-9 16-13 29-3 8-2 1-27-1-43-4-11-2 5-5 6-8 6-12 5-19-1-17-4-15-3-6z" fill="#FDFDFD"/>
<path transform="translate(620,1018)" d="m0 0 4 2 4 3 16 6 16 3v2h2l3 8 7 13 6 9 6 5 4 2v2l4 2 8 5 4 3 6 2v2l6 2 10 4 3 2 9 3 21 4 8 1 38 1 32 4 37 3 1 5-2 12-2 7-5 30-2 19-2 31-4 21-5 18-3 8-7 25-8 33-2 7h-201l-9-5-4-5-3-6-1-56-1-3 6-5 4-7 2-5h2l2-5 11-14 7-7 12-9 14-8 7-6 3-6v-9l-3-7-8-6-8-5-4-1-3-3-3-2v-2l-4-2-10-9-9-11-9-15-4-7-4-3v-24l1-31 1-13 2-5z" fill="#EAA358"/>
<path transform="translate(988,484)" d="m0 0h37l27 3 24 5 37 10 19 8 16 8 15 8 19 12 12 8 19 14 15 14 6 5 20 26 10 17 7 15 5 12 4 40v14l-3 27-5 25h-3l-3-13-8-16-8-12-7-9-11-12-16-16-14-11-6-4v-2l-5-2-12-8-11-7-23-13-21-10-29-11-24-7-30-7-28-4-12-1h-47l-25 3-25 5-23 7-23 10-14 7-15 9-16 12-12 12 1-6 8-24 10-25 5-12 7-16 8-14 9-14 9-12 9-9 14-10 14-8 25-9 27-7 30-4z" fill="#FDFDFD"/>
<path transform="translate(598,711)" d="m0 0 8 1 14 9 7 4 10 11v3l3 1 4 6 1 5-4 8-5 8-9 14-3 6h-2l-2 6-2 4h-2l-4 10h-2l-2 6-8 17-7 13-4 10-5 13-6 13-3 10-4 10-4 11-7 26-4 14-4 18-8 51-2 31-1 21v84l-11 8-4 5-1 3v7l3 7 5 4 4 4 2 1 1 3v97h-48l-1-2v-299l2-25 5-35 2-7 3-18 7-26 7-21 4-13 1-3h2v-5l5-11 5-13 4-9 8-15 1-4h2l3-9 1-2h2l3-9 4-7h2l1-5h2l2-5 1-3h2l2-6h2v-3l3-3 4-6 5-7 1-3 5-4z" fill="#E8A258"/>
<path transform="translate(894,352)" d="m0 0 2 1-2 1zm-2 2 2 1-4 4h-2l2 4-3 24v21l4 18 6 16 6 11 7 9 9 7 7 1 27-9h17l28 4h25l44-5 37-5 9-1h12l10 3 8 7 4 9 3 17 5-1 8-9 3-1 4 4 7 12 6 8 7 4h8l14-4 5-3h3l2-5 7-11 9-19 4-13 1-5 1-36 4 1 8 7 2 2v3h2l2 9v12l-3 28-3 21-1 11v23l3 18 5 16 9 16 12 19 14 22 7 10v2h2v2l4 1-9 6-11 8-4 3h-4l-6-18-8-16-11-18-9-11-9-10-15-15-11-9-12-10-3-1-5-5-22-14-20-11-24-11-21-8-22-7-25-5-29-3-15-1h-32l-23 3-26 6-21 7-20 9-16 9-16 12-4 4h-2l-2 4-9 10-12 18-4-1-9-12-8-16-5-16-1-5-1-17 3-19 5-19 5-12 8-16 8-13 10-14 11-13 2-3h2l2-4 11-10 14-11z" fill="#D4CCDC"/>
<path transform="translate(1480,823)" d="m0 0 4 2 2 7h2l3 9 4 10 6 21 2 4 2 7 3 10 1 7 3 9 7 37 3 34 1 1 1 17v295l-1 1h-50l-1-238-1-6 1-3v-8l-3-17-2-18-4-26-5-25-7-27-9-29-2-5v-6l5-12h2l2-9 3-5 3-7 4-11 2-4h2l2-5 8-7z" fill="#E7A158"/>
<path transform="translate(774,717)" d="m0 0h3l4 29 4 13 10 21 3 10h2v7h-2l-4 18v22l2 9 16 32 6 16v2h2l7 13 3 6 10 11v2h2l4 5 2 1v2l4 2 11 9 13 9 15 9 16 8 11 5 21 8 8 4v3l-13 4-15 2-18 1h-32l-6-1-19-3-12-4-9-4v-2l-4-1-5-3v-2l-5-2-8-6v-2h-3v-2l-5-2-4-2v-2l-5-1v-2l-5-1-4-3-13-5-5-3-7-3-5-2-3-8v-3h-2l-1-8v-35l1-4v-14l-1-16-3-10-6-8-9-4-10 1-6 3-5 6-5 10-5 17-3 15h-2l-5-11-6-16v-2h-2v-7l2-2 1-4h2l1-5 7-12h2l1-5 2-3h2l1-5h2l2-5 7-10 4-7 4-4 2-4 2-1 2-4h2l2-5h2l1-4 3-3 3-4h2v-2h2l1-4 7-6 4-6 8-7 8-9 5-3z" fill="#E9A258"/>
<path transform="translate(992,1375)" d="m0 0h43l19 1 8 3 6 7 3 6v4h2l2-6 4-6 7-6 5-2h18l8 3 5 5 4 6 4-5 5-5 8-4 5-1h9l10 3 8 7 3 5 2 10 1 29v12l-1 21-3 9-9 10-8 4h-16l-8-4-11-11-3 5-8 7-6 3h-16l-10-5-7-9-3-14-1-49-5 8-9 6-6 2h-5v38l-4 11-7 8-9 4h-14l-10-4-7-8-3-7-1-8-1-34-10-3-9-6-4-6-2-13 4-11 4-5 5-3z" fill="#3A0C09"/>
<path transform="translate(823 1e3)" d="m0 0 7 1 23 6 20 3h15l46-4 13-1 5 12 6 8 5 3v2l-21 1-8 3-4 8-2 11v12l3 7 9 6 5 2 13 1 15-4 17-6h12l12 5 23 11 12 3h10l-3 9-1 5 4 10-1 9-4 8-6 4-7 1-7-3-3-3-2-5v-11l3-7 3-4 3-1-30-10-13-2h-18l-14 2-10 5-3 1v2l-5 5-5 10-5 5h-2l-1 4-3 2h-9l-10-8-3 4-7 28-1 9 13-1 7 2 5 6 2 5v8l-3 6-7 7-6 3-6 1 2 15 4 11 1 7-11-3-23-10v-16l3-34 5-32 9-35 7-19 13-30 8-18-1 1-4 5-9 16-13 29-3 8-2 1-27-1-43-4-11-2 5-5 6-8 6-12 5-19-1-17-4-15-3-6z" fill="#D5CDDD"/>
<path transform="translate(943,605)" d="m0 0h33l21 2 29 4 31 6 22 6 24 8 27 12 3 2v12l-4 8-10 4-19 6-2 9-4 4-18 5-18 2h-16l-25-2-15-3-24-6-12-6-9-5 7 9-1 3-10-2-12-5-12-6-12-8-5-4v-2l-4-2-9-10-6-10-2-7v-7l3-6 7-4 10-3 20-3z" fill="#9C7E62"/>
<path transform="translate(961,594)" d="m0 0 31 1 16 1 21 3 21 4h8l5 2 4 2h7l3 1v2l13 2v2l9 1 13 5 14 6 6 2 18 9 9 5 16 9 12 9 9 7 10 8 10 9 22 22 10 13 9 14 5 10 1 8v21l-2 11-8 19-7 12-3 2h-15l-11 3-5 2-6 7h-2v5l-2 1-2-1 1-9 3-12-1-33-2-17-3-14-11-31-11-23v-2h-2l-7-13-12-16-9-9-6-3 3 14v15l-5 4-26 8-38 8-9 1h-36l-14-2-27-7-4-2-1-2-10-5 3-1 4 2 19 4 11 3 17 2 15 1h19l15-2 20-6 2-5 2-7 25-8 4-2 3-7v-12l-24-11-22-8-17-5-31-7-32-5-16-2-14-1h-33l-20 2-20 4-8 4-3 6v7l3 9 7 10 8 9 10 8 16 10 11 5 16 4-2-5 4 2 7 8v2l-10-2-8-1-16-5-11-5-9-4-19-11-12-9-9-11-4-8-3-11v-6l4-4 10-4 18-6 13-3 8-2 11-1 9-3z" fill="#6C534C"/>
<path transform="translate(800,1375)" d="m0 0h12l10 4 6 5 6 9 2 4 2 1 2-6 8-10 7-5 8-2h11l12 4 9 8 4 8 2 15v55l-4 10-8 7-7 3h-18l-10-5-4-5-4 2-5 2h-11l-7-3-4-1-8 7-7 3h-14l-7-4-6-7-3-12v-53l2-14 5-10 7-6 7-3z" fill="#390C09"/>
<path transform="translate(715,846)" d="m0 0 5 1 2 4h2l2 31 1 46 4 16 5 11 1 9h2l2 9v25l-3 13-5 10-9 5-4 1h-11l-12-3-4-2v-2l-6-2-5-4-5-3-7-7-15-9-7-5-4-4v-11l4-4 10-2v-2l16-2 8-5 8-7-6 2-6 4-3 3-21 2-9 5-4 2-2 5-1 9h2l4 6 8 6 14 8 1 1v5l-4 5-9 3-10-2-10-6-6-8-2-5-1-7v-11l3-15 8-16 5-5 7-1 10 4 12 8v-2l-6-4-5-11-4-11-4-14v-3h-2l-4-17-2-16v-15l2-7 5-5 5 2 5 8 3 7 2 11h2l6 16 10 21 10 16 2 1 4-28 2-19 5-22 5-13z" fill="#FBD19D"/>
<path transform="translate(997,986)" d="m0 0h30l1 5v1l12-1h9l7-1 7-2 4 3 2 9 5 9 1 5-5 7-5 5 3 3-7 6-8 5-4 2 8 4 7 10 3 11v16l-4 9-5 4h-9l-15-4-26-13-6-2h-12l-27 9-11 1-9-2-10-5-5-6-1-4v-12l3-14 4-6 8-3h21v1l-20 1-3 1h34l-11-9-6-8-2-3-1-8 3-6h2l2-6 5-2 3-3 7-1h13l5-1z" fill="#4D2B29"/>
<path transform="translate(655,774)" d="m0 0 3 3 10 21 4 8v5l-3 3-3 7h-2l-3 9-2 3h-2v3l-12 1-8 5-3 3-4 13-1 12v24l-13 41-8 31-6 30-2 16-1 2-2 25-1 59-6 4-5 9-1 4h-2l-2 5-7 9-9 10-4 1v-83l2-28 4-33 7-37 10-37 9-28 10-25 7-14 3-7 16-32 10-17 6-9 4-8z" fill="#FBFBFB"/>
<path transform="translate(1341,627)" d="m0 0 7 6 12 12 8 7 8 8v2h2l6 7 4 3 3 5 6 5 2 4 4 3 2 5 4 4 1 8 1 31 2 22 2 7 1 16h2l3 14 2 4v17l-4 15-3-1-5-9-8-15-6-10-4-7-9-15-10-15-12-17-8-10-9-12-9-10-7-8-9-9-7-8-12-11-7-8 1-4 4-1 1-3 12-8 22-18z" fill="#E8A158"/>
<path transform="translate(743,958)" d="m0 0 9 1v2l6 1 6 3v2l7 2v2l5 1 4 2v2l10 4v2l5 1 13 12 5 5 1 3 2 1 7 18 3 16v9l-4 15-7 13-10 10-10 4-18 2-16-2-21-6-19-8-13-7-12-9v-2l13-3 11-6 6-6 1-3h2l2-4 4-5 8-20 3-14v-20l-3-13z" fill="#FCFBFC"/>
<path transform="translate(1079,494)" d="m0 0 8 1 26 7 19 8 16 8 15 8 19 12 12 8 19 14 15 14 6 5 20 26 10 17 7 15 5 12 4 40v14l-3 27-5 25h-3l-3-13-8-16-8-12-7-9-11-12-20-20 4 1-7-48-6-25-8-22-8-17-10-13-13-11-19-13-14-8-18-8-12-5-11-4-4-3-7-2z" fill="#D4CCDC"/>
<path transform="translate(799,547)" d="m0 0 4 1 2 5h2l5 8 4 10-7 17-9 20-6 5-12 7-9 7-14 9-20 16-14 12-10 9-11 11-7 6-7 8-8 8-7 8h-3v-24l4-18 11-34 2-7 2-17 3-4h3l1-3h3v-2l7-5h3v-2l4-1v-2l7-5h3v-2l3-2h3l1-3 7-2v-2l5-1v-2l5-2 5-3h2v-2l11-6 25-12 3-2h4z" fill="#E8A258"/>
<path transform="translate(1063,1268)" d="m0 0 5 1 2 6h2l4 6 5 3 6 1 7 1 8 6 6 2h10l4-1 2 5 3 1 4 4 8 1 5 12 4 12v2l-8 1h-196l-3-2 1-16 1-2 16 1 8-2 8-6 6-10 3-8 1-5 21-1 26-4 29-7z" fill="#FCFCFC"/>
<path transform="translate(1155,1185)" d="m0 0h8l9 4 8 7 4 7v18l-5 10-9 9-12 6h-2l-2 14-4 13-6 10-7 5-4 1h-9l-5-18-1-1 1 9 1 1v7l-2 2h-10l-7-3v-2l-4-2-1-2-1-11-2-4v-11l1-4-4 4v16l1 8-1 1h-7l-6-4-4-7-1-3v-19l1-10 6-15h2l1-4 7-9 4-4 8-4 17-5 12-3 15-5z" fill="#FDD4A0"/>
<path transform="translate(1452,1064)" d="m0 0h2l1 4v226h-36l-1-2v-158l1-33 1-4h2v-2h2l1-5 7-9 8-7 3-1 2-4 5-3h2z" fill="#FBFBFB"/>
<path transform="translate(1094,743)" d="m0 0h22l10 2 6 4 4 1v2l4 2 8 7 4 7v2h2l3 8 2 4 2 14 1 18-2 2h-3l-5-18-8-15-1-1 2 11v24l-4 13-6 10-7 7-9 3h-15l-16-4-5-5-6-8-2-7v-23l3-16 5-15v-2l-8 7-7 10-5 11-3 11h-4v-15l4-16h2l1-6 2-4 2-1 3-6 9-9 11-7h4z" fill="#3B0C09"/>
<path transform="translate(948,1225)" d="m0 0h18l12 4 3 3-6 4-10 9-7 11-7 18v6l5 5 7 2 13 1v4l-4 7-8 7-3 2h-12l-6-3-2-3-1-5-1-27-3 25-1 10-1 23-1 2-8 1h-77l1-8 10-40 8-27 2-1 20 12 15 6 1 5-6 24-1 6v9l1-1 1-12h2l2-11 7-21 7-16 8-13v-5l-1-2 17-9z" fill="#6C534C"/>
<path transform="translate(960,487)" d="m0 0h7v1l-10 2-5 4-14 7-14 11-9 11-8 14-7 16-8 25-3 12-1 10h6l-4 2-21 8-16 7-21 12-14 10-10 9-6 7-1-4 9-26 10-25 5-12 7-16 8-14 9-14 9-12 9-9 14-10 14-8 25-9 27-7z" fill="#D4CCDC"/>
<path transform="translate(1295,695)" d="m0 0 4 2 9 9 6 7 5 5 8 9v2h2l2 5h2l12 16 11 15 9 14 6 9 5 9 5 8 6 10 8 15 11 23 1 7h-2l-3 9-12 26-3 3-1-5h-2l-4-8-3-9-2-3-3-9-4-6-3-9-5-10v-2h-2l-4-8-6-11-9-14-14-21-8-11-9-11-10-13-5-5-2-3 4-39z" fill="#FBFBFB"/>
<path transform="translate(800,1389)" d="m0 0h13l7 7 7 16 7 15 1 2h2l15-30 7-8 5-2h11l8 4 3 5 1 5v59l-3 6-4 3h-14l-5-5-2-7v-29h-2l-3 9-10 21-7 6-6-1-5-5-6-9-8-14-3-6-2 36-3 4h-13l-3-5v-64l4-8 5-4z" fill="#FCFBFC"/>
<path transform="translate(1245,892)" d="m0 0 2 2 1 10h11l-1 5-6 8-7 7-2 5 8-4 2-3h2l-2 6-6 8-2 4-2 1-1 3-8 7-8 4-17 9-25 8-18 3-11 1h-66v-3l15-6 15-5 22-12 4-3h3v-2l7-6h2v-2l4-3h2l2-4h2v-2h2v-2h2l2-4 9-11 3-4h2v-2l5 1 5 3 8 1 15-2 14-6 9-7z" fill="#6C534C"/>
<path transform="translate(1088,1082)" d="m0 0 13 1 33 4 26 6 27 8h5l-3 6 11 3 19 6 6 2v2l-10 2-11 8-36 36 5 1 17 4 9 4 10 9 9 11 3 5v2l2 1-7 6-4 4h-2v2l-11 7-8 5h-2l1-6v-17l-5-10-5-6-10-6-11-2-11 1-12 5-9 3-1-2 8-14 13-16 15-15 15-11 17-7 16-4 7-2-9-1-19 4-11 3h-2l1-5 7-11-1-1-7 7-7 12-9-1-42-12-12-5v-2l-6-2-4-4-2 1-6-18z" fill="#D4CCDC"/>
<path transform="translate(1202,1376)" d="m0 0h18l10 4 6 7 3 8 1 12v36l-1 19-3 9-3 5-8 6-8 3h-12l-10-5-7-8-3-7-1-6v-54l2-13 4-8 5-5z" fill="#3A0D09"/>
<path transform="translate(925,1376)" d="m0 0h18l9 4 6 6 2 5 2 20v45l-1 9-5 10-8 7-9 3h-11l-9-3-5-5-4-5-3-8-1-6v-44l1-17 4-10 4-6z" fill="#390B08"/>
<path transform="translate(604,1119)" d="m0 0 4 2 5 10 10 13 10 11 10 8 9 6 8 4v4l-15 9-16 13-8 9-8 11-7 13-5-5-10-16-15-16-13-10-14-9v-3l15-8 14-12 9-9 10-13 5-8z" fill="#FDC902"/>
<path transform="translate(1097,1389)" d="m0 0h8l6 3 3 4v27h24v-23l3-6 5-4 3-1h8l6 3 3 4v66l-4 7-4 3h-11l-6-5-3-10v-16h-24v20l-3 6-4 4-10 1-6-2-4-6-1-3v-64l5-6z" fill="#FCFBFC"/>
<path transform="translate(786,640)" d="m0 0h2l-2 10-5 24-2 12-2 5-11 9-11 10-8 7-13 12-8 9-1 3-7 6-9 11-5 6-1 3-2 1-3 5-3-3-4-10-7-14-1-5h-2l1-5 11-13h2l2-5 15-16 5-6 8-7 4-2 2-4 13-12 5-3h2l1-3 5-2v-2l9-7 17-12z" fill="#FBFAFA"/>
<path transform="translate(1176,670)" d="m0 0h8l9 6 3 1 5 5v2l4 2 5 6 3 2v2l3 1 6 7 6 5 7 8 6 7 6 9 5 10 3 9v19l-3 11-7 14-4 3-2-2-1-39h-2l-1 6-4 13-5 13h-4l-1-1-2-16-6-29-2-12-2 1-2 19-3 4h-4l-5-17-9-24-16-34-2-5 5-4z" fill="#9D7F63"/>
<path transform="translate(1095,1099)" d="m0 0 5 3v2l6 2v2l9 3 48 14h6l6-11 9-9 1 3-8 12-1 4 21-6 11-2 9 1 1 2-17 4-15 5-12 6-14 11-15 15-10 13-8 14 2 1 16-7 10-2 11 1 8 3 9 7 7 11 1 3v17l-1 2h-2l-1 4-2-1 1-11-1 5h-1l-1-17-5-8-7-6-8-3h-8l-17 4-14 5-14 3-9 3-9 5-8 9-3 4-2-1v-9l-2-3 1-2h2v2h8v-2l10-6 3-8 2-22 6-26 6-19 1-6-15-6-6-9z" fill="#3C0E0B"/>
<path transform="translate(876,723)" d="m0 0h17l8 5 10 9 6 9 2 5v3h2l3 17 1 19v14l-2 10h-2l-1 6h-2l-2 7-11 8h-4v2h-10l-13-5-7-6-4-8-1-4v-10l2 3 3 9 6 8 6 5 8 3h10v-2l8-4 6-8 3-8 1-6 1-20-10-1h-2v8l3 3 2 1-1 5-3 5-6 5-4 2h-6l-6-4-4-7v-8l7-9 1-3v-10l-3-5-8-2v2l-3 1-5 5-3 1v-8l5-15-9 6-12 12-8 15-2 5h-3v-8l3-16 5-12 5-11 5-5 2-3 3-1 1-2 8-4h2v-2z" fill="#3B0D09"/>
<path transform="translate(875,638)" d="m0 0 4 5 9 11 16 11 14 8 15 7 21 7 14 2 4 2-3-4v-2l-4-2-8-8v-2l4 1 12 7v2l5 2 6 3v2l12 3 19 5 14 2h36l19-3 32-7 24-8 2-2v-15l-2-10v-4l6 2 12 12 12 17 4 8v2h2l12 25 8 22 4 12 3 18 1 10 1 33-5 21h3l1-5 5-5 2 1-4 6 3 1-5 5h-2v3l-3 2-2 4h-2l-1 5-5 7h-2l1-8 5-15h2l1-9 4-17v-23l-3-14v-3h-2l-5-21v-3h-2l-2-11h-2l-10-25-6-12v-2h-2l-2-7h-2l-1-5h-2v-3h-2l-3-5-4-5v-2h-2l-2 16-5 4-13 5-12 3 9 4 12 5v2l5 1 1 2 6 2 2 4h-27l-33 3-8 1v2l-18 6-5 2h-4v-4h2l2-5 5-5 4-5h2l1-4-15 1h-16l-12-1-9-2-22-5-16-5-1 5-4 1-4-1v-2l-10-1-26-8-5-1v-2l-3-1-3-3-17-9-10-5v-2l-5-2-7-6-5-5-8-11z" fill="#41110C"/>
<path transform="translate(931,892)" d="m0 0 10 2v2l17 4 17 3h29v-2l18-2 21-6 6-1-2 10-4 10-3 7-4 8-5 7-5 5-5 3-1 2h-3v2l-11 4-3 1h-15l-12-3-10-6-8-7v-2l-4-2-7-10v-2h-2l-4-9-1-9-3-1-1-4-5-2z" fill="#EAA359"/>
<path transform="translate(1074,1203)" d="m0 0h8l6 2v1h-8v-2h-2l1 4 1 1v9l1 3h-2l-3 10-2 5-2 24-2 1-1 5h-3l2 3-7 1-29 7-17 3h-7l-1-2-29-1-10-2 1-6 7-11 5-6 10-7 1-4 38-4 18-4 12-2-1-13 6-9 6-5z" fill="#5F4547"/>
<path transform="translate(1398,993)" d="m0 0 3 1 7 12 11 13 1 3 4 2 10 9 10 6 4 2-2 4-11 7-11 9-5 5-9 10-7 11-3 5h-2l-7-12-7-9-9-10-14-11-10-6v-3l13-8 14-12 8-9 6-8z" fill="#FDC903"/>
<path transform="translate(848,627)" d="m0 0h5l-4 9-4 4-10 18-6 15-6 19-4 21-2 19v19l3 34v6l-4-5-9-15-8-16-5-17-1-32 1-15 4-19 2-5 2-8v-2h-2v-6l2 3 9-10 4-4 2 1-3 5 9-4 8-7z" fill="#9C7D61"/>
<path transform="translate(984,477)" d="m0 0h32l36 3 24 4 15 4 27 9 23 10 16 8 17 9 21 14 4 3v2l4 1 11 9 14 12 20 20 13 17 9 15 8 16 5 15v3l4 1h-6l-1-3-2-10-3 4 3 8 2 18 1 18v16h-1l-4-45-2-12-11-24-8-14-12-16-9-11v-2l-4-2-11-11-14-11-17-12-17-11-19-11-16-8-15-7-16-5-33-9-27-5-20-2h-37l-28 3-22 4-24 7-19 7-17 10-13 10-8 8-9 13-9 15-2 2-1-4 1-2h-2l-1 3-4-1 3-1 7-11 7-9 9-11 11-9 16-11 19-10 26-10 28-7 18-3z" fill="#502821"/>
<path transform="translate(736,1027)" d="m0 0 2 4 6 7 3 2v2l4 2 11 9 15 8 10 3 7 1h13l12-2 2-1-2 6-5 8-9 9-10 4-18 2-16-2-21-6-19-8-13-7-12-9v-2l13-3 11-6 6-6 1-3h2l2-4 4-5z" fill="#D4CCDC"/>
<path transform="translate(650,850)" d="m0 0 5 2 5 8 1 5h-2l-2 7-2 6 2 18 5 18 2 10 5 15 3 3 12-1 7-1 7 3 2 2 7 3-1 2-13 4-5 3-2-1 3-3-7 3-7 6-21 2-9 5-4 2-2 5-1 9h2l4 6 8 6 14 8 1 1v5l-4 5-9 3-10-2-10-6-6-8-2-5-1-7v-11l3-15 8-16 5-5 7-1 10 4 12 8v-2l-6-4-5-11-4-11-4-14v-3h-2l-4-17-2-16v-15l2-7z" fill="#FAD09B"/>
<path transform="translate(985,1389)" d="m0 0h67l5 6v10l-5 4-4 1-15 1-1 51-4 7-2 2h-15l-5-6-1-3-1-12v-40h-15l-6-2-4-5v-8l4-5z" fill="#FBFAFB"/>
<path transform="translate(1096,848)" d="m0 0 8 1h18l3 2 12 3 8 6 4 6 2 9-1 7-4 8-7 7-8 4-13 2h-9l-13-4-8-6-5-5-4-7-1-4v-10l5-8 7-6 6-4z" fill="#F9B06F"/>
<path transform="translate(864,623)" d="m0 0 3 1 4 15 6 10 9 10 11 8 12 7-1 6 5 2 7 8 6 11v3h2l1 8-6-1-9-7-13-8-14-6-18-5-16-2 2-4 13-5 1-1 14-1v-4l-7-8-5-5v-2l-3-1-1-2h-4l-10 15-13 28-5 15-6 22-3 25 2 16v28h-1l-3-28-2-19v-25l3-24 4-17 8-21 11-21 11-15z" fill="#EDA568"/>
<path transform="translate(828,799)" d="m0 0 2 3 2 12v20l14-5 4-1h17l8 4h3l6 1 5 2-4 1-1 2 4 2 7 7v8l-6 15-6 6-11 4h-15l-12-5-6-4v-2l-4-2-6-5 1 18 8 16 5 9-1 2-2-5h-2v-3h-2l-7-16-1-1-1-9-1-1v-18l2-18 1-3v-15l-1-8z" fill="#F9B070"/>
<path transform="translate(868,1255)" d="m0 0 11 6 12 7 13 5 1 5-6 24-4 28-4 1h-43l1-8 10-40 8-27z" fill="#D5CDDD"/>
<path transform="translate(960 1e3)" d="m0 0 4 1 13 10 10 5v14l-1 10-5 1 2 1v2h4v2h2l1 9-1 1-21 1v2h20l3 2-1 7-10 6-20 8-3 1h-7l-10-4-5-4-1-4 1-20 4-10 4-2h31l-5-5-8-7-6-9-1-8 3-6h2z" fill="#5F4648"/>
<path transform="translate(1155,1185)" d="m0 0h8l9 4 8 7 4 7v18l-5 10-9 9-12 6h-2l-1 3-1-9 5-12v-6l-8-5-6-2-9-1h-23l-25 2-5 3-2 1 2-5 10-11 8-4 17-5 12-3 15-5z" fill="#F7AE6E"/>
<path transform="translate(1395,1600)" d="m0 0h83l15 2 4 3v10l-2 5-2 1-39 1h-55l-21-1-3-1v-3h-2l-1-10 5-5 4-1z" fill="#470E08"/>
<path transform="translate(954,589)" d="m0 0h47l27 3 22 4 32 8 27 9 26 11 23 12 15 9 12 8 11 7v2l5 2 13 11 8 7 19 19 8 10 10 15 5 10-1 2-2-1 2 5v9h-1l-2-11-10-17-10-13-11-12-20-20-14-11-8-6-15-11-13-7-9-5-18-9-9-4-10-3-11-5-12-3v-2h-8l-5-2v-2h-11l-4-3-6-1-12-1-16-3-20-3-45-2-19 1-9 3-14 1-3 2-13 2-10 4-16 5-6 3-2 8h-1v-8l3-6-4-1 21-8 23-6 30-5z" fill="#4F2E2C"/>
<path transform="translate(547,1600)" d="m0 0h70l22 1 7 4 1 3v7l-4 6h-115l-5-3-2-4v-7l5-5 4-1z" fill="#430C07"/>
<path transform="translate(823 1e3)" d="m0 0 7 1 23 6v2l10 1 8 3 14 11 6 6 1 9-4 9-4 5-5 2h-16l-17-5-8-5-5-5-1-3v-13h-2l-4-15-3-6z" fill="#FDFCFD"/>
<path transform="translate(560,1208)" d="m0 0 6 5v2h2l4 6 4 4 6 9 9 14 2 4h2l1 2v40h-36z" fill="#FBFAFA"/>
<path transform="translate(1209,1389)" d="m0 0h10l6 5 1 2v66l-4 7-3 2-8 1-8-2-4-6-1-4v-59l2-6 5-5z" fill="#FCFBFC"/>
<path transform="translate(931,1389)" d="m0 0h8l6 3 3 3v65l-3 7-3 4h-15l-5-5-2-11v-52l2-8 5-5z" fill="#FCFBFC"/>
<path transform="translate(1601,548)" d="m0 0 5 5 7 11 7 17 4 21v31l-5 21-9 21-8 15-13 19-11 13-7 8-13 13-8 7-14 11-10 7-16 10-19 10h-3l1-4 10-6 16-10 11-8 12-9 12-11 3-3h2l2-4h2l2-4 7-8 13-18 11-18 8-15 8-20 6-21 2-11v-17l-3-19-8-24-4-8z" fill="#FDC806"/>
<path transform="translate(1429,915)" d="m0 0 2 3 11 44 6 32 2 6 1 18-6-2-2-4-4-2-12-12-12-20-4-5-3-2-1-7 6-16 7-14 4-10z" fill="#FAF9FA"/>
<path transform="translate(880,764)" d="m0 0h6l5 4 1 3v10l-3 6-5 6v8l4 7 5 3h6l8-5 3-3 3-8-5-2-1-7 1-3 7-1 5 2v20l-2 9-4 8-6 7-4 2h-3v2l-10 1-10-4-8-8-4-7-2-7-2 3-1-4v-18l4-20h1v5l5-4h2l1-3h3z" fill="#9C7E62"/>
<path transform="translate(1034,1046)" d="m0 0h9l11 5 4 7v3h2l2 14v3h2l1 4-1 3 2 1-3 6-5 4h-9l-15-4-8-4 1-4-9-3-5-3v-2l-3-1-2-2 1-9 1-1h7l12 4 2 1-1-2-12-4-8-2v-8h2l2-4z" fill="#5E4547"/>
<path transform="translate(494,1692)" d="m0 0 4 1 731 1h228l56 1v1l-1e3 1-13-2z" fill="#B5361B"/>
<path transform="translate(980,1232)" d="m0 0 4 2 8 7 4 2h-4l-1 3-11 8-9 13-3 8 10 1 29 1 6 1v1l-7 2h-21l-1 9-6 11-5 6-8 5-11 1-11-2-1 18 2 1h12v2h-13l-18-1v-1h8l1-25 3-30 2-7h1l1 29 2 7 6 3h12l9-7 4-5 2-6-13-1-8-3-5-5 1-9 6-15 8-12 11-10z" fill="#4B2928"/>
<path transform="translate(1102,1584)" d="m0 0h16l12 3 5 4 4 8-1 6-5 6v3l5 4 2 5-1 6-5 6-2 1h-6l-4-4-3-11-3-3-4-1-1 11-3 5-4 3-7-1-3-5-1-2v-36l3-5 2-2z" fill="#460E08"/>
<path transform="translate(683,1584)" d="m0 0h13l10 2 6 4 4 5v9l-3 5-2 2v3l6 5v9l-3 6-3 2h-6l-4-4-3-8-2-5-1-1h-5l-1 11-3 5-2 1h-8l-4-3-1-4v-36l2-5 4-2z" fill="#440D08"/>
<path transform="translate(1183,1585)" d="m0 0h8l8 3 5 4 5 9 1 3v21l-3 8-4 3-7-1-4-7v-3h-8l-3-1-1 7-4 4h-8l-5-7-1-6v-10l2-11 6-9 5-5z" fill="#420C07"/>
<path transform="translate(970,1585)" d="m0 0h8l9 3 6 7 4 11v19l-2 7-5 4-7-1-2-1-3-9-10-1-1 9-6 3-6-1-4-5-1-5v-20l3-8 8-9z" fill="#400C07"/>
<path transform="translate(1241,1585)" d="m0 0h7l9 7 13 13 2 1-1-5v-9l2-6 1-1h8l2 5v38l-2 5-3 3h-6l-16-13-7-8-2-1v18l-2 3h-6l-4-4v-42z" fill="#3E0B07"/>
<path transform="translate(908,675)" d="m0 0 4 1 11 5 10 4v2l8 1 23 7 10 2v2h8l1-5 6 1 26 7 13 2 2 1 12 1h16l16-1-2 5-5 5-3 1-2 4-2 1-5-1-28-2-19-4-12-4h-14l-22-5-16-5-21-8h-3l-4-6-8-6-1-4z" fill="#F4AD6D"/>
<path transform="translate(584,1676)" d="m0 0h913l5 1v1l-95 1-890-1v-1z" fill="#B5361B"/>
<path transform="translate(1028,1584)" d="m0 0 7 1 3 3 1 3 1 29 1 2h7l1-7 1-26 5-5h6l5 4 2 5v25l-5 12-5 4-6 2h-16l-8-4-6-7-2-12v-17l2-7z" fill="#420C07"/>
<path transform="translate(1148,666)" d="m0 0 3 1 6 8 1 4h2v3h2l1 5h2l2 4v3h2l10 20 6 16v3h2l2 11h2l5 20v4h2l4 17v23l-1 6h-1l-3-17-6-16-8-25-5-18-8-18-6-11-7-9-2-2-7 1-6 5h-2v2h-2v-2l-5-1-15-6-2-3 19-5 10-5 2-6z" fill="#F2A96B"/>
<path transform="translate(1089,779)" d="m0 0h10l5 6 1 8-3 8-9 6 1 8h2l4 6 5 3h10l7-4 4-5 2-4-1-4-1-3h-2v-7l3-3 2-1h6l5 5v19l-2 4h-2l-1 9-5 2h-4v2l-6 1v2l-4 2-7-1-1-3-4 1-10 1-7-5-3-4-2-1-2-5v-16l1-2h2l-2-4v-11l3-6z" fill="#997C61"/>
<path transform="translate(984,477)" d="m0 0h32l36 3 24 4 15 4 13 4-2 4 3 4-10-2-28-7-22-4-20-2h-37l-28 3-22 4-24 7-19 7-17 10-13 10-8 8-9 13-9 15-2 2-1-4 1-2h-2l-1 3-4-1 3-1 7-11 7-9 9-11 11-9 16-11 19-10 26-10 28-7 18-3z" fill="#5A3A35"/>
<path transform="translate(657,1329)" d="m0 0h132l8 3 11 5v3l-9 1-23 1-94-1-14-1-12-4-2-2 1-4z" fill="#1F0506"/>
<path transform="translate(753,1584)" d="m0 0h15l15 1 1 1v8l-1 3-8 1h-13l-1 3v4l18 1 1 1-1 9-17 1-1 6 22 1 1 1v8l-3 3h-32l-4-2-2-4-1-13v-19l1-9 3-4z" fill="#430D07"/>
<path transform="translate(1065,994)" d="m0 0h2l5 12 3 4-1 5-4 6-18 13-9 6-17 4h-11l1-20 3-10 26-8 12-6z" fill="#D4CCDC"/>
<path transform="translate(1221,1329)" d="m0 0h137l9 2v3h2v5l-4 1h-7v2h-82l-23-1-14-2-9-3-5-5z" fill="#1F0506"/>
<path transform="translate(824,1584)" d="m0 0h10l11 3 7 5v6l-3 2-12-5h-6l1 5 11 7 8 6 3 3 1 7-6 9-4 3-4 1h-16l-10-4-6-7v-5h9l7 2 8 1-1-3-13-8-8-7-2-5 1-6 6-7z" fill="#230606"/>
<path transform="translate(742,957)" d="m0 0 4 1h-3l4 18v20l-4 17-7 17-7 9h-2l-1 4-7 7-13 6-10 1-1 2-2-1v-3h3v-2h-7v-2l-4-2-6-8-4-11-2-10 2-4 6 2 8 5 11 4 20 1v-2l8-3 4-2v2l2-3h2l2-6 2-3h2l1-16 1-1v-21l-2-9z" fill="#451C18"/>
<path transform="translate(815,640)" d="m0 0 2 1-3 5 9-3-7 11-8 16-4 11-3 13-1 7v15l3 16 3 10 2 4 3 1 2-9 1-14 5-30 6-18 3-10 10-19 5-7 1 2-9 16-6 15-6 19-4 21-2 19v19l3 34v6l-4-5-9-15-8-16-5-17-1-32 1-15 4-19 2-5 2-8v-2h-2v-6l2 3 9-10z" fill="#6A514C"/>
<path transform="translate(650,850)" d="m0 0 5 2 5 8 1 5h-2l-2 7-2 6 2 18 5 18 2 10 5 15 3 3 12-1 7-1 7 3 2 2 7 3-1 2-13 4-5 3-2-1 3-3-7 3-7 6-17 1 4-3 4-2 2-4 2 1v-2l-6-4-5-11-4-11-4-14v-3h-2l-4-17-2-16v-15l2-7z" fill="#F1A96A"/>
<path transform="translate(1008,917)" d="m0 0h21v2h2l1 6-7 9-9 7-9 5-4 1h-14l-13-3-7-4-7-8-2-2v-3l13-3 8-3 18-2z" fill="#F7AF6F"/>
<path transform="translate(991,1247)" d="m0 0 14 1 5 1h12l2 2 4 1 1-2 6 1 3 4-1 3-2 1 1 4-10 6-12 2-4 1-5 1-7 3h-28l-2-1 1-6 7-11 5-6 5-4z" fill="#6D544D"/>
<path transform="translate(997,986)" d="m0 0h30l1 5-4 16-6 4-4 2-3 29-21-2 1-25 4-26z" fill="#F4AC6D"/>
<path transform="translate(878,1227)" d="m0 0h8l10 5 15 6 7 1 4 2-1 5-4 9-1 2h-2v4h-2l-1 6-2 3-10-1-5-2v-2l-4-1-8-7v-2h-2v-2l-3-1-2-7v-8z" fill="#5E4547"/>
<path transform="translate(931,892)" d="m0 0 10 2v2l17 4 17 3h29v-2l18-2 21-6 6-1-1 6-3 3v-3l-9 3-7 1-5 2-12 2-12 1-35 1-4 3h-2v2l-4 4-2 8 3 1 7 8 7 6 8 4 11 2h14l8-3 11-7 8-9 10-18 3-7h2l-1 9-8 16-5 7-5 5-5 3-1 2h-3v2l-11 4-3 1h-15l-12-3-10-6-8-7v-2l-4-2-7-10v-2h-2l-4-9-1-9-3-1-1-4-5-2z" fill="#512D28"/>
<path transform="translate(961,594)" d="m0 0 31 1 16 1 21 3 21 4h8l5 2 4 2h7l3 1v2l13 2v2l9 1 13 5 14 6 6 2 18 9 9 5 16 9 12 9 9 7 10 8 10 9 22 22 10 13 9 14 5 10v7l-3-4-6-11-8-14-7-10-5-5-7-8-12-11-4-4v-2h-3v-2l-4-1-4-4v-2l-4-2-10-7-6-3-6-4v-2l-5-1-5-4-10-5-17-9-13-6-12-5-19-7-10-3-12-3-6-2-10-2-1-1h-7l-5-2-15-2h-6l-6-1-16-3-10-1h-16l-7 1-8 2-20 1-13 2-14 3-10 3-9 2-7 2-8 4-3 5-2 2v-6l4-4 10-4 18-6 13-3 8-2 11-1 9-3z" fill="#5F4648"/>
<path transform="translate(1321,1584)" d="m0 0h14l20 1 2 2v8l-2 2-4 1h-9v30l-2 6-3 2h-7l-5-5-1-2-1-30-11-2-4-4 1-6 2-2z" fill="#480F08"/>
<path transform="translate(1063,1268)" d="m0 0 5 1 2 6h2l4 6 5 3 6 1 7 1 8 6 6 2h10l4-1 2 5 3 1 4 4 8 1 5 12 4 12v2l-9-1-2-1-6-11-3-4-30-7-14-7-11-8-7-8-6-9v-3l-3-1z" fill="#D5CDDC"/>
<path transform="translate(881,1585)" d="m0 0h43l3 2v7l-2 3-3 1h-10v29l-3 7-2 1h-9l-4-6v-31h-10l-5-3-1-5z" fill="#430D07"/>
<path transform="translate(1082,1013)" d="m0 0 7 1 2 1-1 8-3 8 3-3 4-8 5-4h13v1l-9 1-1 5-5 9-5 17-2 6-4-1h-15l-8 2-7-10-7-3-1-2 10-5 9-7 9-9 1-2h2l2-4z" fill="#D4CCDB"/>
<path transform="translate(1185,896)" d="m0 0 5 2 6 4-2 1-8-4-4 6-6 8-11 12-11 10-17 12-23 13-10 4-25 9-18 4-9 1-7 2-13 2h-50l-4-2 52-1 4-1 16-1 4-1v-2l13-5 23-8 21-9 19-10 16-11 14-12 14-14 7-5z" fill="#F1AA6B"/>
<path transform="translate(883,671)" d="m0 0 12 1 11 4 5 5 8 7 7 13v3h2l1 8-6-1-9-7-13-8-14-6-18-5-16-2 2-4 13-5 1-1z" fill="#3A0A06"/>
<path transform="translate(738,964)" d="m0 0 2 3 1 6v25l-3 13-5 10-9 5-4 1h-11l-12-3-4-2v-2l-6-2-5-4-5-3-7-7-11-7v-1l14 1 12 5 10 5 8 3 9 1 11-2 12-6 3-10z" fill="#F2AA6B"/>
<path transform="translate(872,750)" d="m0 0h2l-1 5-5 17-3 16v18l4 14v4l-6-1-9-9-9-14-3-10 3-9 7-13 15-15z" fill="#FAF9FA"/>
<path transform="translate(1074,1203)" d="m0 0h8l6 2v1h-8v-2h-2l1 4 1 1v9l1 3h-2l-3 10-2 5-2 24-2 1-1 5h-3l2 3-7 1-29 7-5 1h-10l-2-2 12-2 17-5 7-1 1-3 5-1 2 1 1-3h3l2-10v-13l-8-2-8 2h-10l1-4 20-4-1-13 6-9 6-5z" fill="#522C29"/>
<path transform="translate(907,1163)" d="m0 0 10 1 6 5 3 7v8l-3 6-7 7-6 3-9-1-6-5-3-6v-13l5-9z" fill="#5E4546"/>
<path transform="translate(868,768)" d="m0 0h1v5l3-1-1 11v19l2 2 3 10 3 3 1 3 4 3 12 1 6-2 6-1 1-9-1-3-6 3-3-1 8-5 3-3 3-8-5-2-1-7 1-3 7-1 5 2v20l-2 9-4 8-6 7-4 2h-3v2l-10 1-10-4-8-8-4-7-2-7-2 3-1-4v-18z" fill="#6A514B"/>
<path transform="translate(1083,769)" d="m0 0 1 3-5 15-3 16v23l3 9 4 5 1 4-7-1-8-6-7-10-3-9v-7l4-15 7-14 11-12z" fill="#F9F7F7"/>
<path transform="translate(1262,1171)" d="m0 0h2v2h2l-2 13-5 10-4 5-1 3h-2l-3 6h-2l-2 5h-2l-2 4-5 4-5 3h-3l-5 4-2 2-4 1v2h-3l-1 3-5 1v2h-2l-4 4-5 2-2-1v3l-5 2v2l-7 1v2l-6 2-1 4h-3v2l-3 1 2-4 9-10 9-7 9-5 12-7 9-7 8-7 12-12 9-13 5-8 2-6 3-3z" fill="#F5AD6C"/>
<path transform="translate(1028,1175)" d="m0 0h7l5 2 6 7 1 3v9l-5 8-6 5-8 1-8-4-4-7v-11l4-8 5-4z" fill="#5E4344"/>
<path transform="translate(1225,845)" d="m0 0h8l5 2 3 3-2 10-5 7-4 2-5 5-6 5-12 3-2 2h-5v-6l6-7 4-12 6-8z" fill="#EAA359"/>
<path transform="translate(1038,1107)" d="m0 0h11l6 2 4 10-1 9-4 8-6 4-7 1-7-3-3-3-2-5v-11l3-7 3-4z" fill="#6E544D"/>
<path transform="translate(877,1221)" d="m0 0 9 3 20 8 13 4 8 1v6l-9 15-8 19-6 19-2 8h-2v12l-3 2v-10l5-23 2-7v-4l-17-7-18-11-1-2 3-16 4-16zm1 6-3 10v8l3 8h2v2h2l2 4 7 6h3v2l10 3h5l3-5v-4h2v-4h2l4-9 2-4v-3l-4-2-9-2-20-8-3-2z" fill="#502F2D"/>
<path transform="translate(923,1094)" d="m0 0h11l6 4 4 10-1 7-4 6-6 5h-11l-6-4-4-7v-8l6-10z" fill="#624949"/>
<path transform="translate(960 1e3)" d="m0 0 4 1 13 10 9 5-1 23h-6l-10-5-8-7-6-9-1-8 3-6h2z" fill="#D4CCDC"/>
<path transform="translate(1245,414)" d="m0 0 3 3 2 8v26l-3 15-5 13-8 14-8 10-9 10-10 7h-3l1-4 5-4 8-11 10-15 10-21 4-13 2-13z" fill="#563532"/>
<path transform="translate(676,1020)" d="m0 0 5 2 6 3v2l8 1 5 2 7 1 12 2-1 6-10 8-9 3h-9l-9-6-5-10-1-13z" fill="#9B7D62"/>
<path transform="translate(994,1337)" d="m0 0h72l36 1 6 2-2 2h-196l2-2 9-1h24l2-1h32z" fill="#1F0506"/>
<path transform="translate(949,1040)" d="m0 0 4 2-1 2 14 4 1 3h-2l-1 3h-2l-1 4-2 5-4-1v1l5 1-2 2-3 1-1 2h2v2h-2l-2 4-1 1h-5v2l-6-1-3-3-1-4v-9l1-10 4-5 2-4z" fill="#6C534C"/>
<path transform="translate(1110,1132)" d="m0 0h2l-2 10-6 26-2 22-3 8-11 7h-5l-7-2 4-2h3l2-9 8-23 9-21 6-12h2z" fill="#D5CDDD"/>
<path transform="translate(1061,988)" d="m0 0 6 3v3l-15 10-12 5-19 5h-2l-2 10-1 15h-1v-18l3-7-5 1 2-4 8-4 3-12h2v-3l12-1h9l7-1z" fill="#4E2C2B"/>
<path transform="translate(875,638)" d="m0 0 4 5 9 11 16 11 14 8 15 7 21 7 14 2 4 2-3-4v-2l-4-2-8-8v-2l4 1 12 7v2l5 2 6 3v2l12 3 6 2-4 1-6-1-9-1-1 5-4 1-4-1v-2l-10-1-26-8-5-1v-2l-3-1-3-3-17-9-10-5v-2l-5-2-7-6-5-5-8-11z" fill="#3C0E0B"/>
<path transform="translate(815,801)" d="m0 0 4 2 3 9 1 5v19l-1 10-2 10-5-1-6-14-2-12v-9l2-10z" fill="#FBD09B"/>
<path transform="translate(1070,1249)" d="m0 0h1l2 16 3 7 5 5 2 1h7l-1-8v-16l3-4h2v15l2 4 1 11 4 4v2l7 2h10l1-1v-7l-2-5v-8l3 4 4 16-1 7-5 1h-10l-9-4-7-5h-7l-7-3-5-4-1-4h-2l-3-7-3-2 4-1z" fill="#3E1410"/>
<path transform="translate(1248,587)" d="m0 0 5 4 11 16 10 17 6 14 3 10v3l4 1h-6l-1-3-2-10-3 4 3 8 2 18 1 18v16h-1l-4-45-2-12-11-24-8-14-12-16-2-4 7 2z" fill="#62433C"/>
<path transform="translate(1064,1024)" d="m0 0 2 1v2l2 2-7 6-8 5-4 2 8 4 7 10 3 11v16l-1 2h-2v-7h-2l-2-12v-5h-2l-4-8v-2l-6-2-5-2h-9l-20 2-3 3 1-5 2-7 1 4 17-2 11-3 10-7z" fill="#4F2D2C"/>
<path transform="translate(1154,1251)" d="m0 0 1 4-4 15-6 12-8 6-4 1h-9l-3-11v-5l12-2 6-3 6-5 6-11z" fill="#F5AE6E"/>
<path transform="translate(970,1585)" d="m0 0h8l9 3 6 7 2 4 1 8v10l-5-5-7-8-3-4-1-3-5-3-6 1-8 6-3 3h-6v-6l9-10z" fill="#250606"/>
<path transform="translate(1081,800)" d="m0 0 2 1v3h-2v18l2 5 3 1 2 4 7 4 9-1 4-1 2 2v1l7 1 3-1v-2l4-2 2 1v-2l9-2 1-9h2l1-3v8l-6 10-5 5-5 4-5 1h-16l-8-3-8-5-6-8-2-13v-8z" fill="#6B524C"/>
<path transform="translate(1179,915)" d="m0 0 1 4h-2l-2 5h-2v2h-2l-5 10-6 4h-2l-2 4-5 3-1 2-7 4-3 3h-2v2l-6 3h-2v2l-10 4-8 4 1 3 17 1v1h-42v-3l15-6 15-5 22-12 4-3h3v-2l7-6h2v-2l4-3h2l2-4h2v-2h2v-2h2l2-4z" fill="#5F4648"/>
<path transform="translate(1183,1585)" d="m0 0h8l8 3 5 4 3 7 1 3v8h-6l-6-8-1-5-4-1h-8l-10 6-2 2h-6l3-10 7-7z" fill="#210506"/>
<path transform="translate(1089,779)" d="m0 0h10l5 6 1 8-3 8-6 4h-9l-6-5v-11l3-6z" fill="#F8F7F8"/>
<path transform="translate(1142,781)" d="m0 0 5 5 7 15 2 7 1 13-5 10-8 7-7 1 1-5 5-12 1-5v-24l-1-7z" fill="#F7F5F5"/>
<path transform="translate(990,991)" d="m0 0h4l1 4-2 15-6-1h-2v3l-4 2-8-5-10-8-3-2 6-3 3-3 7-1h13z" fill="#4E2B2A"/>
<path transform="translate(881,1235)" d="m0 0 5 2 8 3 3 2h5l3 1v2l3-1 2 1v2l7-1 2 1-2 5-2 4-9 1-6 2-4-1-7-3-5-5-3-6z" fill="#6C534C"/>
<path transform="translate(880,764)" d="m0 0h6l5 4 1 3v10l-3 6-5 5-4 1-5-2-4-5-1-9 3-7 3-1 1-3h3z" fill="#F5F2F4"/>
<path transform="translate(1037,1064)" d="m0 0 4 1 7 1 4 2 2 4v4l2 1-3 8h-2v2l-10-1-3-2v-2l-7-2-1-3-5-1-1-3-3-1-1-4 2-2 9 3 4-1v-3z" fill="#6C534C"/>
<path transform="translate(931,892)" d="m0 0 10 2v2l17 4 17 3h29v-2l18-2 21-6 6-1-1 6-3 3v-3l-9 3-7 1-5 2-12 2-54 1-6-3-5-1-1-2-7-1-1-3-5-2-2-1z" fill="#3E120F"/>
<path transform="translate(948,1225)" d="m0 0h18l12 4 3 3-6 4-8 6 1-6h-3l-1-2h-6l-2-1-10 2-8 3-6 2-6 5v-7l-1-2 17-9z" fill="#5F4547"/>
<path transform="translate(863,401)" d="m0 0h2l1 24 4 20 6 18 6 12 6 9-1 3-7-6-9-14-5-12-5-19v-29z" fill="#57322B"/>
<path transform="translate(939,1268)" d="m0 0h1l1 29 2 7 6 3 11 1v1l-13 1-4 1-1 18 2 1h12v2h-13l-18-1v-1h8l1-25 3-30z" fill="#4E2C2B"/>
<path transform="translate(907,496)" d="m0 0 7 2-3 2-16 6-17 10-13 10-8 8-9 13-9 15-2 2-1-4 1-2h-2l-1 3-4-1 3-1 7-11 7-9 9-11 11-9 16-11 19-10z" fill="#583733"/>
<path transform="translate(1196,743)" d="m0 0 2 2 2 6 3 18 1 10 1 33-5 21h3l1-5 5-5 2 1-4 6 3 1-5 5h-2v3l-3 2-2 4h-2l-1 5-5 7h-2l1-8 5-15h2l1-9 4-17v-33l-3-20-2-5z" fill="#451712"/>
<path transform="translate(568,1535)" d="m0 0h48l19 2 4 2-1 1-55 1-41-1 1-3z" fill="#1F0506"/>
<path transform="translate(1079,783)" d="m0 0 4 2-1 4-1 14-2 6 1 17 3 7 5 6 10 5 4 1h19l-1 3h3l1-2 2 2-7 2h-15l-16-4-5-5-6-8-2-7v-23l3-16z" fill="#3A1311"/>
<path transform="translate(821 1e3)" d="m0 0h6l-4 1 5 12 3 12 1 17-5 19-7 14-7 8-2-1 7-8 3-8 1-3h-2l-1 4-3 3 2-6 4-8 3-13v-9l-3-16-2-8 2-2z" fill="#62433D"/>
<path transform="translate(1041,898)" d="m0 0 6 1-1 6-1-3-3 3-4 10-3 3 1-7h2v-2h-2v-3l-4-1-11 4-5 1-14 1-5 1v-2l-25-1-7 1-4 5-6 5 2 5 7 8 5 6-4-2-12-12v-6l4-6h2v-2l6-4 35-1 19-2 9-2 1-1 11-2z" fill="#9A7B61"/>
<path transform="translate(816,1587)" d="m0 0 2 1v7l-1 2v8l17 8 5 4 1 6-5 5-12-1-8-4-5-1-1 3v-5h9l7 2 8 1-1-3-13-8-8-7-2-5 1-6z" fill="#460E08"/>
<path transform="translate(1116,1266)" d="m0 0 2 1v8l2 5v7l-2 2h-10l-7-3v-2l-4-2-1-2v-11l6 1v2l9-1 4-1z" fill="#F7AF6F"/>
<path transform="translate(542,1595)" d="m0 0h83l5 1v3l3 1h-14l-4 1v-2h-79l3-3z" fill="#F9B06F"/>
<path transform="translate(1101,493)" d="m0 0 9 1 20 8 24 11 3 2 1 4 2 3-6-2-9-5-9-2-15-7-16-5-4-6z" fill="#48201B"/>
<path transform="translate(924,790)" d="m0 0h1v14l-2 10h-2l-1 6h-2l-2 7-11 8h-4v2h-10l-13-5-7-6-4-8-1-4v-10l2 3 3 9 6 8 6 5 8 3h10v-2l8-4 6-8 3-8 1-6h1v7h2z" fill="#5A281E"/>
<path transform="translate(1155,1179)" d="m0 0 11 1 8 3 9 7 7 11 1 3v17l-1 2h-2l-1 4-2-1 1-11-1 5h-1l-1-17-5-8-7-6-8-3 4-1-17-3h-5l3-2z" fill="#3B1B18"/>
<path transform="translate(1141,514)" d="m0 0 5 1 13 6-3-3 1-2 6 2 14 8 18 12 4 4-5-1-1 4-5-2-17-11-19-11-11-6z" fill="#583732"/>
<path transform="translate(943,1311)" d="m0 0 16 1h6l-5 12-1 6-3 1h-12l-3-2 1-16z" fill="#D5CDDD"/>
<path transform="translate(1038,1107)" d="m0 0h11l6 2 4 10-1 9-4 8-6 4-7 1-7-3-3-3v-5l3 2h2l1 4h5l3-3h3l1-2 3-1 2-6 2-5-5-5v-2l-7-1-7 1-2 9-1-2-4 2v-6l5-7z" fill="#634948"/>
<path transform="translate(675,1016)" d="m0 0 6 2 8 5 11 4 12 2 12 1 1 4-3 5-12 9-6 2h-4l-1 4 12-1-2 2-7 2h-6l-1 2-2-1v-3h3v-2h-7v-2l-4-2-1-3 6 3h9l10-4 8-6 2-6-18-1-7-3-7-2v-2l-5-1-4-3h-2v9l-2-4-1-6z" fill="#69504B"/>
<path transform="translate(942,1035)" d="m0 0h21v1l-20 1-3 1h31l3 2h-31l-3 1-4 10-1 21 1 4h-2l-3-5-1 4 2 1h-3l-2-6v-12l3-14 4-6z" fill="#583732"/>
<path transform="translate(1028,1175)" d="m0 0h7l-1 2 4 2 1 8v6l-1 2h-2l-1 3h-3l-1 2h-4l-6-6-1-7 4-4 2-5z" fill="#6C534C"/>
<path transform="translate(690,1617)" d="m0 0h5l3 3 3 10 2 4 2 1h6l5-5 2-4h2l1 8-1 3-7 1h-8v2h-6l-4-3-7 1v-2h-2l-1 2v-3l2-1 2-16z" fill="#F5AE6C"/>
<path transform="translate(689,952)" d="m0 0 2 1-10 9-7 4-16 1v2l-10 3-3 3v11l3 2v2h-3l-1 2-4-5v-2h-2v-9l3-6 9-5 4-2 21-2 7-6z" fill="#4B1D17"/>
<path transform="translate(875,635)" d="m0 0 4 5v2l3 1 6 7 5 5 17 8 5 3v2l5 2 16 8 10 4 13 4 9 1 1-2 3 4v2l-10-2-8-1-16-5-11-5-9-4-19-11-12-9-9-11-3-5z" fill="#5F4648"/>
<path transform="translate(1043,902)" d="m0 0h2l-1 9-8 16-5 7-5 5-5 3-1 2h-3v2l-11 4-3 1h-15l-4-2v-2l19-1 8-3 11-7 8-9 10-18z" fill="#461814"/>
<path transform="translate(702,1614)" d="m0 0 10 2 5 3v9l-3 6-3 2h-6l-4-4-2-13z" fill="#250707"/>
<path transform="translate(700,1587)" d="m0 0 10 1 6 7v9l-2 4-6 2h-6l-2-5v-12l-1-4z" fill="#240606"/>
<path transform="translate(925,1237)" d="m0 0 2 1-1 7-8 13-8 19-6 19-2 8h-2v12l-3 2v-10l5-23 2-7h2l-1-6-6-1 1-2h9l3-8h2v-4h2l3-9 2-4 3-3z" fill="#431A18"/>
<path transform="translate(921,1036)" d="m0 0 2 1-9 20-14 33-4 11h-1l-1-6-2 1 3-10 10-23 13-23z" fill="#5F3F39"/>
<path transform="translate(980,686)" d="m0 0 9 1 3 3 7 1v2l20 2 10 2h41l14-2 4 2-14 3-9 1h-36l-14-2-27-7-4-2-1-2z" fill="#5F4648"/>
<path transform="translate(1175,1585)" d="m0 0h3v2l-5 3-6 7-3 8-1 7v10l2 7 4 6-1 3-7 1-3-3-1-7-2-8 3-9 1-10 1-3 3-1 2-6 9-6z" fill="#F4AD6C"/>
<path transform="translate(632,1603)" d="m0 0h11l3 2 1 3v7l-3 5h-12l-9-1 4-4 2-1z" fill="#270707"/>
<path transform="translate(1310,1586)" d="m0 0h11l7 6 9 9-3 7h-5l-3-4-2-7-14-1-2-3 1-6z" fill="#230606"/>
<path transform="translate(856,1336)" d="m0 0h24l14 2 3 4-2 1h-41l-7-1 3-3z" fill="#1F0506"/>
<path transform="translate(1045,1273)" d="m0 0h5l-3 2-1 3-22 12-12 5-3-1 14-8 1-2-9-1-9-2v-1l26-4z" fill="#D5CDDD"/>
<path transform="translate(1278,922)" d="m0 0h3l-1 6 2 1-2 6-3 5h-2l-2 4-10 10h-3l-1 2-5 2-1-3 6-7 4-6 5-5h4l-1-4 4-6z" fill="#F9B06F"/>
<path transform="translate(455,1417)" d="m0 0h9l2 1v2l4 2 4 3-1 3h-25l-5-2-3-4 2-2 6-2z" fill="#1F0506"/>
<path transform="translate(875,638)" d="m0 0 4 5 9 11 16 11 14 8 15 7 21 7 14 2 4 2-3-4 1-2 5 5-1 4-9-1-9-3-8-1-8-3-10-4-19-9-11-6v-2l-5-2-7-6-5-5-8-11z" fill="#4A2828"/>
<path transform="translate(1124,1615)" d="m0 0 10 1 3 3 1 4v8l-6 5h-6l-2-2-1-4v-14z" fill="#220606"/>
<path transform="translate(1112,1617)" d="m0 0 6 1 3 5 2 9 3 3v2l4 1-8 2-5-2v-2l-3 2h-7l-2-2 4-5 2-12z" fill="#F5AD6C"/>
<path transform="translate(1060,1584)" d="m0 0 5 3 1 6-3 11-3 6-4-2v-2l-3-1-1-2v-14l4-4z" fill="#1F0506"/>
<path transform="translate(671,1586)" d="m0 0h2l-1 6v36l2 5 2 1v2h8l-1 2-13-1-3-2-2-7v-15l2-15v-4l3-7z" fill="#F5AD6C"/>
<path transform="translate(1117,1267)" d="m0 0 3 4 4 16-1 7-5 1h-10l-9-4-7-5h-7l-7-3 2-1h10 3l4 5 1-1 1-3 2 1v2l7 2h10l1-1v-7l-2-5z" fill="#431814"/>
<path transform="translate(1123,1588)" d="m0 0 10 1 5 7 1 7-4 6-6 1-4-6-2-9-1-6z" fill="#270706"/>
<path transform="translate(1245,892)" d="m0 0 2 2 1 11h-2v-2l-10 1-8 5-9 3-9 1h-12l-9-1-1-3h-2v2h-2l-2 5-2-1 2-4 3-4h2v-2l5 1 5 3 8 1 15-2 14-6 9-7z" fill="#5F4648"/>
<path transform="translate(1074,1208)" d="m0 0h5l1 1v7l-8 16h-4l-4-7v-6l5-8z" fill="#E19F5B"/>
<path transform="translate(996,1045)" d="m0 0h7l3 6v7l-1 5-2 6-7-1-3-10v-10h2z" fill="#5F4648"/>
<path transform="translate(1274,1585)" d="m0 0h8l1 1v14l-1 7h-9l-2-6v-9l2-6z" fill="#290807"/>
<path transform="translate(815,732)" d="m0 0h1l2 32 2 21v6l-4-5-9-15-5-9 1-2 5 7h4l2-6z" fill="#5F4648"/>
<path transform="translate(1419,1099)" d="m0 0 1 2-1 33-1 158h-1l-1-185z" fill="#AE4A2F"/>
<path transform="translate(1091,1592)" d="m0 0h1l1 35 5 8 1 2-7 1-4-4-2-7 1-20 1-5h2l-1-7z" fill="#F8AF6E"/>
<path transform="translate(1403,1536)" d="m0 0h40l10 2v2h-63v-2l2-1z" fill="#1F0506"/>
<path transform="translate(1238,1585)" d="m0 0v3l-2 6v38l2 3v3l-5-1-4-9v-11l1-4 1-13 1-5 3-8z" fill="#F8B06F"/>
<path transform="translate(1095,728)" d="m0 0h20l13 4v2l9 3 5 4 1 3-6-2-5-3v-2l-7-1-7-3h-26l-10 2-4-1 5-3z" fill="#BB6741"/>
<path transform="translate(1236,704)" d="m0 0 4 2 3 2v2h2l1-3 12 17 6 12-1 2-2-1 2 5v9h-1l-2-11-10-17-10-13z" fill="#512F2C"/>
<path transform="translate(1249,1616)" d="m0 0 6 4 10 9 10 7-3 3-7-1-7-4v-2l-6-2-3-2z" fill="#F8AF6E"/>
<path transform="translate(644,943)" d="m0 0 8 1 11 6 4 4-6-2v-2l-6-1-8-3h-5l-5 6-7 14-2 10v18l1 8h2l4 6 6 5 8 3h8l6-1-2 2-10 2-9-3-9-6-5-7-2-5-1-7v-11l3-15 8-16 5-5z" fill="#A66448"/>
<path transform="translate(1229,1384)" d="m0 0 4 1 5 10v24l-1 5h-1v-7h-2l-6-26z" fill="#1F0506"/>
<path transform="translate(742,1587)" d="m0 0h1v30l1 13 2 4 3 1-1 4-6-1-4-8-1-7 1-18 3-17z" fill="#F7AF6C"/>
<path transform="translate(1332,1615)" d="m0 0 3 1 5 12-2 5-3 2h-7l-2-2v-11l1-4z" fill="#200506"/>
<path transform="translate(1213,677)" d="m0 0 6 2 22 22 4 5v4h-2l-5-5-5-3-14-14-3-6z" fill="#4B221D"/>
<path transform="translate(1019,1592)" d="m0 0h1l1 21 2 12 7 9-2 2-5-1v-2l-4-2-2-5-2-9v-11l2-7z" fill="#F7AF6D"/>
<path transform="translate(827,807)" d="m0 0 2 3 1 8v15l-2 12h-1v-10h-2l-2 6h-1v-24l-1-8 5-1z" fill="#46110C"/>
<path transform="translate(863,401)" d="m0 0h2l1 24 2 21-1 2h-2v-3h-2l-2-9v-29z" fill="#421B1A"/>
<path transform="translate(1225,845)" d="m0 0h8l3 3-10 1-6 3-4 5-4 9-1 10-5 2-1 4-4 1-1-5 6-7 4-12 6-8z" fill="#380906"/>
<path transform="translate(1255,1585)" d="m0 0 6 3h6l4-3h2l-1 7v14l-4-2-14-14-1-4z" fill="#F3AD6A"/>
<path transform="translate(939,485)" d="m0 0h9l-2 4-11 4-18 5h-9l1-3 19-7z" fill="#4D2620"/>
<path transform="translate(1284,1598)" d="m0 0h2v3h3v20l1 2-1 5-1 6-2 2-6 2-4-1h3l2-4 2-5z" fill="#F5AE6C"/>
<path transform="translate(1181,1624)" d="m0 0 11 1 5 10-1 4-5-1-7-3-1 2-9 1 3-5h2z" fill="#F5AC6C"/>
<path transform="translate(714,798)" d="m0 0 1 2-2 5h-2v2h2l-1 6-3 1-2 4-7 5v-2h-2l-1 3 1-6 3-9 3-3 3-5z" fill="#F9B06F"/>
<path transform="translate(1205,1593)" d="m0 0 5 5 4 9v8l-2 8 3 1v7l-4 8h-5l-2-3 4-7 1-4v-21l-4-9z" fill="#EAA66A"/>
<path transform="translate(779,1615)" d="m0 0 5 1 1 9-17-1-7-1-1-4 2-3z" fill="#F5AD69"/>
<path transform="translate(883,711)" d="m0 0h12l11 4 9 6 5 4 1 5-6-3-9-7-8-3-20-2 1-3z" fill="#EEA75F"/>
<path transform="translate(1047,892)" d="m0 0h2l-1 6-3 3v-3l-9 3-7 1-5 2-11 1v-2l-9-1v-1l18-2 21-6z" fill="#4E2722"/>
<path transform="translate(535,1416)" d="m0 0h5l1 1v12l-3 2h-9l-2-4 1-9z" fill="#1F0506"/>
<path transform="translate(1214,859)" d="m0 0 1 4-1 8 1 2h4l2-10 4-1 1 3-1 9-6 5-12 3-2 2h-5l1-2 4-1v-4l5-1 1-10z" fill="#B25A3A"/>
<path transform="translate(1200,757)" d="m0 0 3 2 2 8 2 10 2 5v4l-1 3v23l-3 5-2 1 1-13-1-26-2-17z" fill="#5F4648"/>
<path transform="translate(1185,1597)" d="m0 0 6 1 1 3v13h-10l-2-3 1-11z" fill="#EBA459"/>
<path transform="translate(674,1586)" d="m0 0h15l1 5-7 5-9 3-2 4-1-11 2-5z" fill="#240606"/>
<path transform="translate(866,804)" d="m0 0 2 3 3 9 6 8 6 5 8 3h10l1 2-5 2h-8l-12-5-6-5-4-8-1-4z" fill="#4F2E2D"/>
<path transform="translate(1140,651)" d="m0 0 6 2 12 12 12 17 4 8-1 2-7-11-10-13-7-8h-2l-2 5-1 16-4 2 2-3v-15l-2-10z" fill="#4A2828"/>
<path transform="translate(1069,1598)" d="m0 0h1l1 15 2 1v14l-7 8-7 1v-3l4-5 5-13z" fill="#F6AD6D"/>
<path transform="translate(973,1597)" d="m0 0 6 2v15h-11l-1-7 3-9z" fill="#FBC40F"/>
<path transform="translate(1129,793)" d="m0 0h6l4 3v7l-7 5-6-2v-2h-2v-7l3-3z" fill="#F5F2F3"/>
<path transform="translate(1235,487)" d="m0 0 2 1-6 9-11 13-7 6-6 4h-3l1-4 5-4 8-11 4-4 1 3 5-3 6-8z" fill="#593935"/>
<path transform="translate(949,1275)" d="m0 0h1l2 7 7 4 4 1 13 1v4l-4 7-8 7-3 2h-12l-2-2h9l5-2 4-5 1-3h2l-1-3 1-4h-7l-9-4-3-3z" fill="#5F4648"/>
<path transform="translate(1196,743)" d="m0 0 2 2 2 6 3 18 1 10 1 33-2 7h-2l-1 5-2 1 2-11 1-6v-33l-3-20-2-5z" fill="#562A27"/>
<path transform="translate(769,1625)" d="m0 0h13l1 5-1 5h-11l-5-1v-2l-5-1v-3z" fill="#1F0506"/>
<path transform="translate(1296,669)" d="m0 0 4 2 10 10 8 7 7 7 7 8 9 9 22 28 6 9-1 2-13-17-10-13-9-10-7-8-9-9-7-8-12-11z" fill="#A0684E"/>
<path transform="translate(907,1284)" d="m0 0h1v7l-2 8h-2v12l-2 8h-2l-1 11h26v1h-31l2-17 2 3 1-1 1-12h2l2-11z" fill="#5E4446"/>
<path transform="translate(956,1589)" d="m0 0h3l-2 4-4 5-2 7v20l1 9h-5l-1-2v-24l2-10 2-1 1-3h2v-3z" fill="#F2AB6A"/>
<path transform="translate(492,1558)" d="m0 0h2l1 9 2 7-1 31-1 13-2 1-1-41z" fill="#FAB170"/>
<path transform="translate(907,496)" d="m0 0 7 2-3 2-16 6-17 10-9 6v-2l-2-1 16-11 19-10z" fill="#63433C"/>
<path transform="translate(1476,1416)" d="m0 0h7l5 2 1 5-5 5-9 1-2-2v-9z" fill="#1F0506"/>
<path transform="translate(821 1e3)" d="m0 0h6l-4 1 5 12 1 14 1 4v12l-3-1-2-13-5-17 2-4z" fill="#593934"/>
<path transform="translate(995,1618)" d="m0 0h1v12l-4 5-6 1-5-2 1-8 9-4 4-1z" fill="#270807"/>
<path transform="translate(960,834)" d="m0 0h3l-1 4-3 5-7 4-5 1 3 10 2 3v3l-5-1-3-5-1-10 2-3h2v-2l10-5z" fill="#52251D"/>
<path transform="translate(1054,975)" d="m0 0 7 1v1l-9 1-7 2-13 2h-50l-4-2 52-1 4-1 16-1z" fill="#CB905C"/>
<path transform="translate(843,640)" d="m0 0 1 2-9 16-6 15-6 19-4 21-1 10h-1v-17l2-12 6-18 3-10 10-19z" fill="#664D4A"/>
<path transform="translate(1026,1585)" d="m0 0h6l4 3v8l-6 4-6-1-2-6 3-7z" fill="#1F0506"/>
<path transform="translate(1280,1623)" d="m0 0h2v10l-3 3h-6l-6-5-1-4 2-3z" fill="#270707"/>
<path transform="translate(1244,1616)" d="m0 0h3v18l-1 1h-6l-3-2v-11z" fill="#200506"/>
<path transform="translate(1245,889)" d="m0 0 3 3 1 11 5 1v1h-6l-1-1-1-10-1-1-5 5-8 6-12 5-16 2-7-1-6-4-4-1v2l-4 2 2-4 2-2 6 1 5 3h19l11-4 9-6 3-3h2l2-4z" fill="#4A2828"/>
<path transform="translate(742,957)" d="m0 0 4 1h-3l4 18v20l-4 17-5 12-1-2-4 1 1-4h2l2-6 2-3h2l1-16 1-1v-21l-2-9z" fill="#654740"/>
<path transform="translate(767,1586)" d="m0 0h15l1 1v9h-11l-4-2-2-3z" fill="#1F0506"/>
<path transform="translate(1064,1024)" d="m0 0 2 1v2l2 2-7 6-8 5-4 2-4 1-5-2 5-4 14-9z" fill="#5A3934"/>
<path transform="translate(1158,1293)" d="m0 0 1 3 2 5 2 1 3 11-1 9-3 1-7-21v-8z" fill="#F3AA6A"/>
<path transform="translate(429,1455)" d="m0 0h1l1 6v32l-1 8h-2l-1-13v-26z" fill="#1F0506"/>
<path transform="translate(824,1592)" d="m0 0h13v2l-6 1 1 5 11 7-3 1-8-2-12-7v-5z" fill="#460E08"/>
<path transform="translate(855,1622)" d="m0 0h2l2 4-1 5-2 4h-2l-1 3-10 2-5-1-1-2 6-2 6-4z" fill="#F4AD6D"/>
<path transform="translate(674,1623)" d="m0 0 10 1 3 3-1 7-2 1h-8l-3-2v-9z" fill="#220606"/>
<path transform="translate(1014,1014)" d="m0 0h4l-2 7-1 19-2 7-2 5-1 8 5 1v1h-7l1-14 2-7v-12l2-14z" fill="#480F09"/>
<path transform="translate(1239,849)" d="m0 0 2 1-2 10-5 7-4 2-4 4v-3l2-4v-2l-2-1-1-4h2l2-5 7 1v-2h3z" fill="#F9B06F"/>
<path transform="translate(1079,783)" d="m0 0 4 2-1 4-1 14-2 6v15h-1l-1-6h-2v-15l3-16z" fill="#48211E"/>
<path transform="translate(910,782)" d="m0 0 7 1 3 1v7l-4 4-3 1-5-3-1-7 1-3z" fill="#F0EEF2"/>
<path transform="translate(936,897)" d="m0 0h2l1 2 7 1 1 3 8 1 4 2h41v1l-35 1-3 2-6-1v-2l-12-2-1 3 1 7-2-2-2-8v-4l-3-1z" fill="#624545"/>
<path transform="translate(944,905)" d="m0 0h8l9 5-2 1v2l-4 4-2 6h-1v-6h-3l-5-8z" fill="#B3361B"/>
<path transform="translate(1199,1623)" d="m0 0h6l3 2-2 9-3 2-7-1-2-3 1-7z" fill="#270707"/>
<path transform="translate(493,1654)" d="m0 0 4 1v3h2l3 9 4 1v2l3 1-1 3-9-1v-2l-4-2-2-4z" fill="#F7AF6D"/>
<path transform="translate(1e3 902)" d="m0 0h12l-3 1-1 3h-47v-2l-3-1h36z" fill="#250606"/>
<path transform="translate(1245,414)" d="m0 0 3 3 2 8v26l-2 11h-1v-9l1-6v-12l-3 12h-1z" fill="#826756"/>
<path transform="translate(675,1016)" d="m0 0 6 2 8 5 11 4 12 2v1l-11 2-7-3-7-2v-2l-5-1-4-3h-2v9l-2-4-1-6z" fill="#684F4B"/>
<path transform="translate(738,964)" d="m0 0 2 3 1 6v25l-3 13-5 10-5 3h-2l2-4 6-10 3-10 2-6v-20z" fill="#C38654"/>
<path transform="translate(991,1007)" d="m0 0h1l-1 29-2 3-1-6h-1v-17l-4-1-1-3h3v-3z" fill="#48130D"/>
<path transform="translate(902,1622)" d="m0 0 4 2 4 5-1 5-2 1h-9l-2-3 1-5z" fill="#230506"/>
<path transform="translate(1101,1111)" d="m0 0 8 2 7 4-1 10-2 5h-1v-5h-2l-1-4h-2l-5-9z" fill="#D6CEDE"/>
<path transform="translate(1321,1600)" d="m0 0h2l1 25 2 11h-3l-3-4-1-8v-15l1-8z" fill="#FAB170"/>
<path transform="translate(1100,1194)" d="m0 0 1 4-5 6-5 3-7 8-3 4-2-1v-9l-2-3 1-2h2v2h8v-2l10-6z" fill="#4A1C17"/>
<path transform="translate(1489,1604)" d="m0 0 5 1 2 4-1 7-3 3h-6v-10z" fill="#1F0506"/>
<path transform="translate(824,722)" d="m0 0h1l1 33 2 16v28h-1l-2-16-2-55z" fill="#DA965B"/>
<path transform="translate(1058,1218)" d="m0 0 2 4 1 9-5 2-11 1 2-4 5-5z" fill="#DFD9E5"/>
<path transform="translate(1101,1622)" d="m0 0 5 2 3 3v5l-5 4h-4v-2l-4-2 4-9z" fill="#250606"/>
<path transform="translate(1194,540)" d="m0 0 9 4 6 5 1 5-3 1-6-3-8-6-1-5z" fill="#4B231D"/>
<path transform="translate(715,846)" d="m0 0 5 1 2 4h2l-1 4-3-5-5-1-1 2h-2l-3 13h-2v7l-3 11-3 21h-1v-10l4-23 6-18 3-5z" fill="#BC794E"/>
<path transform="translate(1167,1625)" d="m0 0h11l1 2v6l-3 2h-8l-3-4z" fill="#230606"/>
<path transform="translate(1076,817)" d="m0 0 2 1 3 12 6 8 1 2-1 2h2l1 4-5-2-8-11-2-7v-8z" fill="#441D19"/>
<path transform="translate(972,1626)" d="m0 0h7l2 4v4l4 2v2h-8l-5-3-1-2-2-1h2z" fill="#F7B160"/>
<path transform="translate(1345,1586)" d="m0 0h9l2 2v6l-2 2h-9l-1-9z" fill="#1F0506"/>
<path transform="translate(1377,1605)" d="m0 0 6 2 1 2v9l-9-1-1-1v-10z" fill="#1F0506"/>
<path transform="translate(880,1586)" d="m0 0h7l4 5-1 5h-10l-2-6z" fill="#270706"/>
<path transform="translate(1096,1277)" d="m0 0 3 1 1 5 8 2v2l4-2 3-5 4-1 1 1v7l-2 2h-10l-7-3v-2l-4-2z" fill="#E09E5A"/>
<path transform="translate(1027,1085)" d="m0 0 5 1 3 2 17 4 6 2v2h-9l-15-4-8-4z" fill="#5A3A35"/>
<path transform="translate(687,916)" d="m0 0h5l4 3v11l-1 2-3-1-6-9v-5z" fill="#230506"/>
<path transform="translate(1248,587)" d="m0 0 5 4 11 16 2 5-4-4-5-8-4-3-2 1 1 4-5-5-6-7 1-2 6 2z" fill="#694B42"/>
<path transform="translate(1117,730)" d="m0 0 9 1 2 1v2l9 3 5 4 1 3-6-2-5-3v-2l-7-1-7-3-20-1v-1z" fill="#B68B62"/>
<path transform="translate(956,1626)" d="m0 0 10 1v6l-5 3-6-1-3-3v-3z" fill="#270707"/>
<path transform="translate(977,950)" d="m0 0h4v2l17 1-2 4-7 3-6-1-4-3z" fill="#FEFEFE"/>
<path transform="translate(1224,820)" d="m0 0h14l6 4 6 9 2 6v27l-4 12h-1l1-9 2-4v-25l-5-11-4-5-4-2h-15z" fill="#C78958"/>
<path transform="translate(940,1263)" d="m0 0h3l-1 29 1 8 4 6-4-1-2-3-1-5-1-27-1 5h-1v-7z" fill="#5F4648"/>
<path transform="translate(1038,1107)" d="m0 0h11l2 1v2l-14 2-2 9-1-2-4 2v-6l5-7z" fill="#624847"/>
<path transform="translate(1011,943)" d="m0 0m-1 1 3 1v3l-10 3h-15l-4-2v-2l19-1z" fill="#481F1A"/>
<path transform="translate(827,845)" d="m0 0h1l1 24 1 11 8 16 5 9-1 2-2-5h-2v-3h-2l-7-16-1-1-1-9-1-1v-18z" fill="#CC7E4D"/>
<path transform="translate(1007,697)" d="m0 0 8 1 14 2h36l14-1-4 2-32 3-31-4-5-2z" fill="#4A2828"/>
<path transform="translate(998,1607)" d="m0 0 2 4-1 14 3 1v4l-2 7-5 1h-5v-3l5-5 2-4z" fill="#F4AD6E"/>
<path transform="translate(689,1594)" d="m0 0 9 1 1 1v6l-3 3-6 1-1-1z" fill="#F7BD1D"/>
<path transform="translate(1111,1594)" d="m0 0 8 1 3 3-1 4-5 4-5-1z" fill="#F8BF1A"/>
<path transform="translate(690,1617)" d="m0 0h5l3 3 1 4v7l-9-1z" fill="#FBC50B"/>
<path transform="translate(824,834)" d="m0 0 3 1v12l-2 8-1 3h-3v-12z" fill="#200506"/>
<path transform="translate(888,1384)" d="m0 0 5 3 4 8v7l-5-1-2-6-1-5h-2l-1-5z" fill="#1F0506"/>
<path transform="translate(992,694)" d="m0 0 15 2v2l5 1 13 2 1 3-11-1-26-7z" fill="#421513"/>
<path transform="translate(1092,1250)" d="m0 0h2v15l2 4v8h-1v-6l-3-1-2 4-1-4v-16z" fill="#634139"/>
<path transform="translate(935,1284)" d="m0 0h1v11l-1 10-1 23-2 2-2-20 3-10z" fill="#5F4648"/>
<path transform="translate(1254,904)" d="m0 0h5l-1 5-6 8-5 4 1-5h2l-1-6-1-5z" fill="#5F4648"/>
<path transform="translate(1021,982)" d="m0 0 8 2v1l-31 1-6 2-3-2 1-3z" fill="#1F0506"/>
<path transform="translate(1112,1617)" d="m0 0 6 1 3 5v6h-8l-1-1z" fill="#FCC708"/>
<path transform="translate(1036,1041)" d="m0 0h7l11 3-1 3-7-1h-29v-1z" fill="#461C17"/>
<path transform="translate(823,792)" d="m0 0h2l1 2 1 13-3 3-3-1-1-2v-9z" fill="#1F0506"/>
<path transform="translate(820,807)" d="m0 0h1l2 10v19l-1 10-2 10h-1v-14l1-7z" fill="#BA7850"/>
<path transform="translate(815,640)" d="m0 0 2 1-3 5 2 1-8 7-6 10-1-3 1-4h-2v-6l2 3 9-10z" fill="#563431"/>
<path transform="translate(863,401)" d="m0 0h2l1 24 1 12-2-4-1-5-1-20v26l1 11-2-4-1-5v-29z" fill="#846857"/>
<path transform="translate(866,520)" d="m0 0h3v3l-8 7-7 8-2 2-2-5 6-7z" fill="#5D3E39"/>
<path transform="translate(976,948)" d="m0 0 12 2h15l8-2v2l-10 5-4 1v-2l-14-1-2-1v-2l-5 1z" fill="#D5CDDD"/>
<path transform="translate(965,907)" d="m0 0h9l-2 2-7 1-4 5-6 5 2 5 7 8 5 6-4-2-12-12v-6l4-6h2v-2z" fill="#9E7B5F"/>
<path transform="translate(822,1581)" d="m0 0h17l6 3v2l-11-1h-10l-8 3-3-1 5-4 2 1v-2z" fill="#EBA465"/>
<path transform="translate(1024,1006)" d="m0 0h3v5h-3v2l-5 1-2 10-1 15h-1v-18l3-7-5 1 2-4 8-4z" fill="#572E26"/>
<path transform="translate(1209,823)" d="m0 0 2 1-4 6 3 1-5 5h-2v3l-3 2-2 4-1-2v-7l2-7 1 4h3l1-5z" fill="#57322E"/>
<path transform="translate(973,1604)" d="m0 0h5l1 1v9h-11l2-2-1-2 3-5z" fill="#EBA459"/>
<path transform="translate(745,1626)" d="m0 0h8l4 3-2 5-5 1-5-2z" fill="#1F0506"/>
<path transform="translate(942,907)" d="m0 0h2l5 8v2h3l1 8 3 1-1 3-3-1-5-7v-2h-2z" fill="#441814"/>
<path transform="translate(1222,845)" d="m0 0 3 1-9 6-6 9-3 10-6 7-2 4-1-5 7-9 4-10 6-8z" fill="#B7714A"/>
<path transform="translate(1207,521)" d="m0 0h4l-1 11-2 4-5-1 1-6z" fill="#FEFEFE"/>
<path transform="translate(925,1237)" d="m0 0 2 1-1 7-8 13-2 5-2-2v-4h2l3-9 2-4 3-3z" fill="#3F1513"/>
<path transform="translate(686,1179)" d="m0 0h5l-2 9-5 5-1-3-3 1 3-9z" fill="#F8B06E"/>
<path transform="translate(815,801)" d="m0 0 4 2 1 4-4-2h-2l-2 6h-2v30l-2-4-1-8v-9l2-10z" fill="#AF6D4B"/>
<path transform="translate(918,1586)" d="m0 0h8l1 1v7l-4 2-5-3-1-5z" fill="#250606"/>
<path transform="translate(1209,550)" d="m0 0 4 2 7 6h-3l2 4v3l-4-2-11-9h3 3z" fill="#603E36"/>
<path transform="translate(1185,1597)" d="m0 0 6 1v6l-5 2h-3l-1 3h-1v-9z" fill="#FBC50C"/>
<path transform="translate(901,1290)" d="m0 0 3 3-2 11h-2v12l-3 2v-10z" fill="#5B3932"/>
<path transform="translate(1074,1203)" d="m0 0h8l6 2v1h-8v-2h-2v4l-8 3-4 2v-2l-2 1 2-4 5-4z" fill="#614037"/>
<path transform="translate(1141,660)" d="m0 0h1l1 5v15l-5 4-22 7-4-1 13-4 9-3 5-4h2z" fill="#5F4648"/>
<path transform="translate(1249,1616)" d="m0 0 6 4 7 6v2l-9-1-4-1z" fill="#FCC60B"/>
<path transform="translate(1399,1595)" d="m0 0 16 1 6 1v2h-30l4-1v-2z" fill="#FAB170"/>
<path transform="translate(920,1190)" d="m0 0v3l-6 5-4 2-9-1-5-4v-2h3v2l8 1 11-4z" fill="#4C2A29"/>
<path transform="translate(1006,986)" d="m0 0h21l1 5-4 16-1-4 1-12-5-2v-2h-13z" fill="#C28555"/>
<path transform="translate(644,943)" d="m0 0 8 1 11 6 4 4-6-2v-2l-6-1-8-3h-5l-5 6-3 6-1-4 6-8z" fill="#B9754E"/>
<path transform="translate(883,711)" d="m0 0h12l8 4-3 1-22-1 1-3z" fill="#DB9E61"/>
<path transform="translate(1135,834)" d="m0 0h2l-1 5-8 8-8 1 1-3 6-4 4-2 2-4z" fill="#350E0D"/>
<path transform="translate(878,829)" d="m0 0 7 1 6 2h10l1 2-5 2h-8l-10-5z" fill="#2D0908"/>
<path transform="translate(886,506)" d="m0 0 2 1-1 4-12 7-6 4v-2l-2-1 16-11z" fill="#6C4F46"/>
<path transform="translate(1326,1579)" d="m0 0 4 1 3-1 6 1 1 1h4l-1 3-28-1v-1l7-1z" fill="#F9B06F"/>
<path transform="translate(1066,1210)" d="m0 0 2 1-3 8h-2v8l-1 5-2-1-1-13 4-6z" fill="#532B26"/>
<path transform="translate(1184,1105)" d="m0 0 1 3-8 12h-3l-4 7h-5l4-2 6-11z" fill="#5C3830"/>
<path transform="translate(1087,973)" d="m0 0h2v3h60v1h-62l-2-1v-2z" fill="#4A2828"/>
<path transform="translate(737,677)" d="m0 0 2 1-9 9v-3zm-10 10 2 1-24 24-2-1 9-9 5-6 8-7z" fill="#D4C9CA"/>
<path transform="translate(745,1586)" d="m0 0h7l1 1v5l-8 4h-1v-9z" fill="#200506"/>
<path transform="translate(967,1307)" d="m0 0h3v2l-5 3-11 1-7-1-1-3h21z" fill="#4A211C"/>
<path transform="translate(1091,1269)" d="m0 0 4 2 2 9 3 8-4-1-3-4v-3h-2z" fill="#250909"/>
<path transform="translate(1072,1256)" d="m0 0h1l1 8 6 9 5 3h4l2-2-1 5h-7l-6-4-4-7-1-3z" fill="#DB9B63"/>
<path transform="translate(921,1036)" d="m0 0 2 1-9 20h-3l-2 1 2-6 7-12z" fill="#75584C"/>
<path transform="translate(1014,1014)" d="m0 0h4l-2 7-1 15-3-1v-15z" fill="#280606"/>
<path transform="translate(1141,948)" d="m0 0 2 1-9 6-15 8-11 4-4-1 21-9 10-6z" fill="#4A2828"/>
<path transform="translate(738,753)" d="m0 0 1 2-3 5-5 4-6 10-3 3h-2l2-5h2l1-4 3-3 3-4h2v-2h2l1-4zm-20 24 2 1-4 6-3 1 1-3 2-1z" fill="#CC834E"/>
<path transform="translate(963,676)" d="m0 0 5 2 5 3v2l5 2 6 3v2l12 3 6 2-4 1-13-4-18-11-4-3z" fill="#4D2D2C"/>
<path transform="translate(1205,1593)" d="m0 0 5 5 4 9v8l-2 8h-1l-2-19-4-9z" fill="#F6AE6B"/>
<path transform="translate(1208,1116)" d="m0 0 9 1 1 2-14 3-3-1 1-1h-10v-1z" fill="#9D7F63"/>
<path transform="translate(670,952)" d="m0 0h2l1 4-1 2 4 3-1 1-17 1 4-3 4-2 2-4 2 1z" fill="#C9905D"/>
<path transform="translate(1202,819)" d="m0 0h2l2 3 6-2-1 3-5 5h-2v5l-2 1-2-1 1-9z" fill="#5F4648"/>
<path transform="translate(718,1626)" d="m0 0h2l1 8-1 3-7 1h-3l1-3 5-5z" fill="#F3AD6E"/>
<path transform="translate(828,799)" d="m0 0 2 3 1 5v27l-2 11h-1v-9l1-3v-15l-1-8z" fill="#B38A62"/>
<path transform="translate(944,849)" d="m0 0h3l4 10 1 5-5-1-3-5-1-7z" fill="#663C32"/>
<path transform="translate(849,536)" d="m0 0 3 1-1 6-4 6h-5l1-5z" fill="#54302B"/>
<path transform="translate(720,1026)" d="m0 0h3v2l8-1-4 7-3 2v-5l-18-2v-1h14z" fill="#4F2827"/>
<path transform="translate(761,1617)" d="m0 0h17v2l-10 1 2 3h-9l-1-4z" fill="#FDC903"/>
<path transform="translate(620,1250)" d="m0 0 2 3-2 9-1 12-2-3v-19z" fill="#F8B069"/>
<path transform="translate(771,1607)" d="m0 0h7l1 5-2 3h-6l-1-5z" fill="#1F0506"/>
<path transform="translate(1097,1586)" d="m0 0 8 1 1 4-6 3-4-1-1-3z" fill="#1F0506"/>
<path transform="translate(1168,1271)" d="m0 0 3 1-1 4 2 2-3 5-5 1v-7l2-4h2z" fill="#F3AA6A"/>
<path transform="translate(630 1e3)" d="m0 0 4 5 7 6 8 3h8l6-1-2 2-10 2-9-3-9-6-3-4z" fill="#BA774D"/>
<path transform="translate(671,892)" d="m0 0 3 4 9 19 7 11-1 2-8-11-8-16z" fill="#AD6C4B"/>
<path transform="translate(727,777)" d="m0 0h2l-2 5-5 5-4-1-4 3-2-1 2-4 6-5 3 1-3 2 3 1 2-4h2z" fill="#F9B06F"/>
<path transform="translate(868,768)" d="m0 0h1v5l3-1-2 13-3 3-1-2v-9z" fill="#6A4D46"/>
<path transform="translate(737,758)" d="m0 0 3 2v2h-2l-2 4-3 1-1 3h-3l-3 4-1-2 4-5 2-4z" fill="#F8AF6E"/>
<path transform="translate(849,1606)" d="m0 0h3v2h2l3 6v6l-3-1-3-5-4-5z" fill="#F8AF6C"/>
<path transform="translate(940,1228)" d="m0 0h3v2l-7 3-7 8h-3l-1-5z" fill="#512F2D"/>
<path transform="translate(1050,1034)" d="m0 0h4l-1 6-4 2-4 1-5-2 5-4z" fill="#55302A"/>
<path transform="translate(1202,805)" d="m0 0h3v7l-2 7h-2l-1 5-2 1 2-11z" fill="#3C110F"/>
<path transform="translate(1079,783)" d="m0 0 4 2-2 14-5 1 1-9z" fill="#6A4B42"/>
<path transform="translate(910,1164)" d="m0 0h7l6 5 3 7v4h-2v-4h-2l-2-8-9-1z" fill="#51302F"/>
<path transform="translate(696,1051)" d="m0 0 4 1-1 2 12-1-2 2-7 2h-6l-1 2-2-1v-3h3v-2h-7v-1z" fill="#62433D"/>
<path transform="translate(1294,693)" d="m0 0 3 1-2 1 1 7-3 29h-1v-21l1-2z" fill="#634540"/>
<path transform="translate(1235,487)" d="m0 0 2 1-6 9-6 7-5-2-2 3h-2l2-4 4-4 1 3 5-3 6-8z" fill="#71574F"/>
<path transform="translate(1174,1188)" d="m0 0 7 6 4 6v20h-1l-1-17-5-8-6-5z" fill="#792011"/>
<path transform="translate(828,1021)" d="m0 0 2 3 1 5 1 17-3 13h-1v-7l1-5v-12l-1-4z" fill="#7A5F53"/>
<path transform="translate(1235,846)" d="m0 0 4 2v4l-4-2h-7l-6 3-5 5-2-1 6-7 10-3z" fill="#A66146"/>
<path transform="translate(930,682)" d="m0 0 6 1 14 6v2l-9-2-8-2v-2l-3-1z" fill="#4A150F"/>
<path transform="translate(1072,491)" d="m0 0h7l6 2 10 2 10 4-3 1-30-8z" fill="#775D52"/>
<path transform="translate(697,948)" d="m0 0h8v2l-12 4-5 3-2-1 3-3-3-1 10-3z" fill="#A5674A"/>
<path transform="translate(1222,862)" d="m0 0h3l1 3-1 9-2 1 1-11h-2l-1 10-2 2h-5l-2-3v-6l3 6h4l2-10z" fill="#9E7F62"/>
<path transform="translate(865,782)" d="m0 0 3 4 3-3-1 6-4 6-1 11h-1v-18z" fill="#7C6054"/>
<path transform="translate(1349,724)" d="m0 0 5 5 10 12 5 8-1 2-13-17-6-8z" fill="#A3694E"/>
<path transform="translate(1181,1624)" d="m0 0 11 1v5l-7-2-4 5h-2z" fill="#F0B137"/>
<path transform="translate(1012,900)" d="m0 0h9v1l7 1-4 2-11 1v-2l-9-1v-1z" fill="#633F36"/>
<path transform="translate(920,491)" d="m0 0 2 1-2 3 3 1-6 2h-9l1-3z" fill="#532D27"/>
<path transform="translate(827,1060)" d="m0 0 1 2-5 12-8 11-4 2 6-8 2-3 2-6 1-2h2l2-7z" fill="#775A4E"/>
<path transform="translate(1014,1040)" d="m0 0 1 4h8l4 3-1 1-12 1-3 3 1-5z" fill="#4F2F2F"/>
<path transform="translate(1183,1585)" d="m0 0h8l7 2-4 1h-13l-8 4-5 4 2-4 5-5z" fill="#3C0B07"/>
<path transform="translate(995,944)" d="m0 0h15l-3 2-4 1h-14l-5-1v-1z" fill="#C68A57"/>
<path transform="translate(1172,913)" d="m0 0 3 1-9 10-5 4-1-3z" fill="#D3975A"/>
<path transform="translate(1253,596)" d="m0 0 2 1v2l3 1 2 3v3h-4l-4-2-2-7z" fill="#421916"/>
<path transform="translate(1056,1622)" d="m0 0h5l-2 5-5 3h-3l1-5z" fill="#1F0506"/>
<path transform="translate(1029,1273)" d="m0 0 4 1 4 2-10 2h-10l-2-2 12-2z" fill="#573633"/>
<path transform="translate(1070,1249)" d="m0 0h1l2 17-2 2-1 5-2-2-1-3-3-2 4-1z" fill="#421612"/>
<path transform="translate(1e3 902)" d="m0 0h12l-3 1-1 3h-12l-2-3z" fill="#41201F"/>
<path transform="translate(1328,700)" d="m0 0 7 6 10 11 4 5-1 3-9-11-11-12z" fill="#A17256"/>
<path transform="translate(931,1047)" d="m0 0 2 2v17l-2 1-1-3v-5l-1-3 1-8z" fill="#390A08"/>
<path transform="translate(1138,1630)" d="m0 0h3l2 5-2 3h-6l-2-2z" fill="#F4AD6E"/>
<path transform="translate(686,1581)" d="m0 0h13l3 3h-24l3-2z" fill="#F9B06F"/>
<path transform="translate(1098,1289)" d="m0 0 6 2 2 1 14 1v-3l3 1-1 3-4 1h-10l-9-4z" fill="#785A4D"/>
<path transform="translate(1096,1277)" d="m0 0 3 1 1 5 8 2v2l10 1v1h-10l-7-3v-2l-4-2z" fill="#CA8D58"/>
<path transform="translate(1030,897)" d="m0 0h6l-2 4-5 1h-9l2-3z" fill="#3B110E"/>
<path transform="translate(735,893)" d="m0 0h2l1 5v9l-4 1v-14z" fill="#1F0506"/>
<path transform="translate(868,816)" d="m0 0 4 5 6 6 3 2-2 1 1 2-5-2-4-4-3-6z" fill="#461C18"/>
<path transform="translate(1146,683)" d="m0 0v3l-10 5-16 4v2l-4-2 3-2 16-4 10-5z" fill="#AC5035"/>
<path transform="translate(973,944)" d="m0 0 11 1 5 1-3 2-2-1v2l3 1-8-1-5-2z" fill="#562822"/>
<path transform="translate(1091,1281)" d="m0 0 5 4 2 4-4-2-7-1-8-2-1-2h12z" fill="#74564A"/>
<path transform="translate(912,1055)" d="m0 0 1 4-4 10-2-4-1 1-1-3 3-5z" fill="#64453D"/>
<path transform="translate(990,983)" d="m0 0h14v2l-7 2-5 1-3-2z" fill="#250707"/>
<path transform="translate(684,1046)" d="m0 0 6 3h9l6-2h5l-3 2-11 3h-7l-5-4z" fill="#674E4A"/>
<path transform="translate(936,897)" d="m0 0h2l1 2 7 1 1 2-3 1-1 5 1 7-2-2-2-8v-4l-3-1z" fill="#714336"/>
<path transform="translate(846,1631)" d="m0 0 3 1-4 3-4 1h-16v-1l12-1 2-2z" fill="#480F08"/>
<path transform="translate(852,1247)" d="m0 0h1v7l-5 12h-1l2-16z" fill="#F2AA6A"/>
<path transform="translate(1051,1108)" d="m0 0 4 1 3 9-5-2-2-4-3-1 1-2 2 1z" fill="#654C4A"/>
<path transform="translate(1124,879)" d="m0 0 7 1v4l-6 1-3-2z" fill="#F5DCC1"/>
<path transform="translate(1192,839)" d="m0 0h1l-1 11 4-3-2 4-4 6h-2l1-8z" fill="#9A7558"/>
<path transform="translate(881,792)" d="m0 0 3 1v8l4 7 5 4-6-1-2-1-4-11z" fill="#6A514C"/>
<path transform="translate(1031,1130)" d="m0 0 3 2h2l1 4 5 1v1l-7 1-4-4z" fill="#644B4A"/>
<path transform="translate(1095,1099)" d="m0 0 5 3v2l4 2h-2v3l4 3-5-1-6-9z" fill="#6A493F"/>
<path transform="translate(1254,914)" d="m0 0v3l-8 8-1 2 8-5-2 4-8 4-1-2 4-6z" fill="#4A2828"/>
<path transform="translate(907,496)" d="m0 0 7 2-3 2-6 2h-6l-1-2z" fill="#5F3E37"/>
<path transform="translate(764,1581)" d="m0 0h9l8 2v1h-16l-8-1v-1z" fill="#F8AF6D"/>
<path transform="translate(811,1589)" d="m0 0 1 3-2 4 1 11-4-1v-7l3-9z" fill="#F7AE6B"/>
<path transform="translate(822,1581)" d="m0 0 11 1v1l-9 2-8 3-3-1 5-4 2 1v-2z" fill="#F1AC6C"/>
<path transform="translate(1170,1384)" d="m0 0 4 3 1 8-3 1-1-4-3-7z" fill="#1F0506"/>
<path transform="translate(1079,1216)" d="m0 0 2 3v2h-2l-3 10-2 3-1-6z" fill="#5F342B"/>
<path transform="translate(660,943)" d="m0 0h2l4 7 5 3-1 3-10-7-2-2h3v-2l-2-1z" fill="#45100B"/>
<path transform="translate(730,841)" d="m0 0 4 4-1 5-4-1-1-1v-6z" fill="#1F0506"/>
<path transform="translate(1117,730)" d="m0 0 9 1-4 3-4-1-20-1v-1z" fill="#C8915D"/>
<path transform="translate(1170,645)" d="m0 0 4 1 11 7 7 5-1 2-10-6v-2l-5-2-6-4z" fill="#411815"/>
<path transform="translate(911,1627)" d="m0 0 3 1 1 5-3 4-4-2z" fill="#F2AC6B"/>
<path transform="translate(921,1248)" d="m0 0 1 3-6 12-2-2v-4h2l2-6z" fill="#3D1210"/>
<path transform="translate(1246,811)" d="m0 0v3l-3 2h-10l-5-1 3-3 5 1 4 1 5-2z" fill="#5F4648"/>
<path transform="translate(1215,505)" d="m0 0 1 3-6 7v3l-3 2h-3l1-4 5-4z" fill="#74574B"/>
<path transform="translate(1101,493)" d="m0 0 9 1 3 2h-4v2h-6l-2-4z" fill="#471E19"/>
<path transform="translate(1053,1226)" d="m0 0 2 2-3 4 4 1-11 1 2-4z" fill="#CABDC4"/>
<path transform="translate(689,952)" d="m0 0 2 1-10 9-2 1-1-3 7-7z" fill="#3E0F0B"/>
<path transform="translate(1128,807)" d="m0 0 6 2-4 5-6 7-2-1 4-5 2-4z" fill="#71574F"/>
<path transform="translate(1175,692)" d="m0 0 3 4 6 12v3h-2l-7-15z" fill="#583A39"/>
<path transform="translate(982,693)" d="m0 0 2 1-2 5-4 1-4-1v-2h-5v-1h10z" fill="#774B3E"/>
<path transform="translate(1248,428)" d="m0 0 1 4-3 9-1 6h-1l1-17z" fill="#69504C"/>
<path transform="translate(914,1265)" d="m0 0 1 3-2 9-4 7-1-4z" fill="#5F4648"/>
<path transform="translate(1243,924)" d="m0 0 1 2-1 3 5-1-4 5-5-1v-5z" fill="#5F4648"/>
<path transform="translate(901,831)" d="m0 0m-4 1 5 1-2 2-3 1h-8v-3z" fill="#260808"/>
<path transform="translate(844,1608)" d="m0 0 6 4 4 4 1 7-2 2-1-9-4-2v-2l-4-1z" fill="#57140B"/>
<path transform="translate(1092,1250)" d="m0 0h2l-1 14-2-2v-5h-2l1-4z" fill="#987358"/>
<path transform="translate(1016,1061)" d="m0 0 8 2 7 3v2l-11-3-5-2z" fill="#4A2828"/>
<path transform="translate(1448,995)" d="m0 0h1l1 5 1 18-6-2 2-1 2 1-1-11z" fill="#BBA8A5"/>
<path transform="translate(1245,937)" d="m0 0v3l-2 1-1 3-8 7-2-1 11-12z" fill="#533637"/>
<path transform="translate(962,837)" d="m0 0h1v7l-1 2-7 1 2-4 3-3z" fill="#ECE7EB"/>
<path transform="translate(1277,637)" d="m0 0 2 2 2 10-4-2v-2h-2l-1-6h2z" fill="#431B1A"/>
<path transform="translate(1141,514)" d="m0 0 5 1 12 6v2l-6-2-11-6z" fill="#65463F"/>
<path transform="translate(828,1618)" d="m0 0 5 2v3h-8l-3-3z" fill="#F8BF1A"/>
<path transform="translate(896,1314)" d="m0 0 3 3-1 8-1 4h-2v-8z" fill="#5B3B37"/>
<path transform="translate(907,1284)" d="m0 0h1v7l-2 8h-2l-1 2 1-8z" fill="#5F4648"/>
<path transform="translate(974,1261)" d="m0 0 1 2-4 7 1 4 5 1v1h-7l-2-1 1-6z" fill="#5F4648"/>
<path transform="translate(896,1193)" d="m0 0h3v2l5 1v2h6v2l-9-1-5-4z" fill="#57332C"/>
<path transform="translate(1018,1081)" d="m0 0 6 1 4 4-4 1-8-4z" fill="#4E2B28"/>
<path transform="translate(647,945)" d="m0 0 9 1 10 6 1 2-6-2v-2l-6-1-8-3z" fill="#CF955F"/>
<path transform="translate(1139,826)" d="m0 0h3l-2 6-3 3h-3l2-6z" fill="#411815"/>
<path transform="translate(866,794)" d="m0 0h1l2 16-2-3-2 3v-15z" fill="#634A49"/>
<path transform="translate(672,690)" d="m0 0h1l1 18-1 4 3 1-3 2-1-1z" fill="#AE482D"/>
<path transform="translate(429,1385)" d="m0 0h1l1 10-1 7-2-1v-14z" fill="#1F0506"/>
<path transform="translate(948,1225)" d="m0 0h18l2 2h-15l-7 1z" fill="#523230"/>
<path transform="translate(1071,1204)" d="m0 0 2 1-2 3 3 1-5 3h-3-2l2-4z" fill="#593632"/>
<path transform="translate(894,1088)" d="m0 0 1 4 4-2-1 5-2 6h-1l-1-6-2 1z" fill="#694940"/>
<path transform="translate(1027,1085)" d="m0 0 5 1 4 3v3l-6-2-4-3z" fill="#563430"/>
<path transform="translate(994,1040)" d="m0 0h11l3 1v3l-5-1h-8z" fill="#380907"/>
<path transform="translate(739 1e3)" d="m0 0 1 4-4 12-4 5 1-7 3-4z" fill="#AF472B"/>
<path transform="translate(867,437)" d="m0 0 2 4 5 17-1 2-6-14z" fill="#7A5E51"/>
<path transform="translate(1042,1270)" d="m0 0m-5 1 7 1-3 3h-9l3-3z" fill="#492523"/>
<path transform="translate(931,1070)" d="m0 0 3 4v2h2l1 4-5-1-2-4z" fill="#451A15"/>
<path transform="translate(968,1060)" d="m0 0h5l-2 5-5 1-1-2 1-3z" fill="#6D544D"/>
<path transform="translate(730,1021)" d="m0 0 2 1-1 4-2 2h-6l1-3z" fill="#611D13"/>
<path transform="translate(1079,970)" d="m0 0h6l-3 2-11 3h-5l3-3 9-1z" fill="#BF7A4D"/>
<path transform="translate(1013,700)" d="m0 0 12 1 1 3-11-1-2-1z" fill="#3E1311"/>
<path transform="translate(1116,1595)" d="m0 0 4 1 2 2-1 4-5 1-2-2 2-2 2 1v-3z" fill="#EBA459"/>
<path transform="translate(899,1165)" d="m0 0h5v2l-5 2-4 6-1-4 3-5z" fill="#593A37"/>
<path transform="translate(1038,1107)" d="m0 0h11l2 1v2h-12l-4 1z" fill="#593936"/>
<path transform="translate(1090,1020)" d="m0 0 4 2-5 9h-2l1-6z" fill="#65463C"/>
<path transform="translate(1222,864)" d="m0 0h2v9l-4 4-2-1 2-2z" fill="#B1341A"/>
<path transform="translate(1545,743)" d="m0 0 2 1-11 10-4 3-2-1 3-3h2l1-3 8-6z" fill="#B5361B"/>
<path transform="translate(1278,635)" d="m0 0 2 3 3 10v3l4 1h-6l-1-3-2-10z" fill="#75584D"/>
<path transform="translate(1427,1057)" d="m0 0 2 1-14 14v-3l6-7z" fill="#842412"/>
<path transform="translate(667 1e3)" d="m0 0 4 2 4 5-5 2-1-7h-2z" fill="#1F0506"/>
<path transform="translate(962,903)" d="m0 0h13l-1 3h-9v-2z" fill="#2D0908"/>
<path transform="translate(698,607)" d="m0 0 2 1-3 2zm-4 3 3 1-4 4-2 12h-1l1-13z" fill="#BD522D"/>
<path transform="translate(702,1583)" d="m0 0 6 2 6 5h-3l-8-4-7-1v-1z" fill="#E2A366"/>
<path transform="translate(1184,1105)" d="m0 0 1 3-4 6h-3l-3 2 2-4z" fill="#66453B"/>
<path transform="translate(899,1081)" d="m0 0 1 4v5l-5 2 1-5z" fill="#431A17"/>
<path transform="translate(915,798)" d="m0 0h3v5l-3 3-3-1z" fill="#9D7F63"/>
<path transform="translate(1134,736)" d="m0 0 4 2 5 5-2 1-9-5z" fill="#F2AA64"/>
<path transform="translate(1571,715)" d="m0 0v3l-8 10-4 3 2-4z" fill="#B5361B"/>
<path transform="translate(879,478)" d="m0 0h2l1 2 2-2 4 6-1 3-7-6z" fill="#775B4F"/>
<path transform="translate(1478,1414)" d="m0 0m-5 1h5l-4 3-1 9-2-1v-8z" fill="#380906"/>
<path transform="translate(920,1168)" d="m0 0 3 1 3 7v4h-2v-4h-2z" fill="#533230"/>
<path transform="translate(972,1036)" d="m0 0 5 1 4 3 2 3-9-2v-3z" fill="#5B3C38"/>
<path transform="translate(947,901)" d="m0 0 7 1 11 3v1l-7 1-6-3-5-1z" fill="#4A2828"/>
<path transform="translate(864,623)" d="m0 0 3 1 1 7-2-2v-3l-8 7v-3z" fill="#A5654A"/>
<path transform="translate(841,547)" d="m0 0 1 2 4 1-2 2v-2h-2l-2 4-5 2z" fill="#644239"/>
<path transform="translate(1042,1617)" d="m0 0h3l2 5h-7v-4z" fill="#FCC708"/>
<path transform="translate(900,1302)" d="m0 0 1 2-1 12-3 2 1-9z" fill="#3E1412"/>
<path transform="translate(986,1248)" d="m0 0 2 1-12 12v-3l5-6z" fill="#634A49"/>
<path transform="translate(1028,1175)" d="m0 0h7l-1 2 2 2-11 1z" fill="#674E4B"/>
<path transform="translate(1203,1117)" d="m0 0 5 2-4 3-3-1 1-1h-10v-1z" fill="#7F6455"/>
<path transform="translate(815,801)" d="m0 0 4 2 1 4-4-2h-2l-2 6-1-4z" fill="#C88555"/>
<path transform="translate(1109,497)" d="m0 0h3l1 5-8-1-1-3z" fill="#5D3D39"/>
<path transform="translate(1090,1274)" d="m0 0 1 4-1 1h-7l-4-3h10z" fill="#C19062"/>
<path transform="translate(656,939)" d="m0 0 3 1 2 7-4-1-2-3z" fill="#1F0506"/>
<path transform="translate(1251,863)" d="m0 0 1 3-4 12h-1l1-9z" fill="#C0774D"/>
<path transform="translate(1235,846)" d="m0 0 4 2v4l-4-2-7-1 3-2z" fill="#A0674B"/>
<path transform="translate(1079,790)" d="m0 0h1v9l-4 1 1-9z" fill="#5A3A35"/>
<path transform="translate(1196,743)" d="m0 0 2 2 2 6v5l-3-3-1-3z" fill="#593C3B"/>
<path transform="translate(1166,676)" d="m0 0 4 2 5 11-1 3-7-13z" fill="#654C4A"/>
<path transform="translate(1312,1596)" d="m0 0h12l2 4-14-3z" fill="#6C1C0E"/>
<path transform="translate(1091,1269)" d="m0 0 4 2-1 6h-2l-1 2z" fill="#370806"/>
<path transform="translate(1022,1206)" d="m0 0 11 1v3l-8-1z" fill="#53312F"/>
<path transform="translate(1037,1138)" d="m0 0h12l-1 2-7 1-4-1z" fill="#604039"/>
<path transform="translate(680,914)" d="m0 0 4 2 6 10-1 2-8-11z" fill="#BA7C52"/>
<path transform="translate(1083,731)" d="m0 0 9 1v1l-10 2-4-1z" fill="#B58A60"/>
</svg>
